<svg width="1158" viewBox="0 0 1158 272" fill="none" xmlns="http://www.w3.org/2000/svg"><g filter="url(#filter0_d)"><path d="M151.205 235v-84.8L223.02 49.5h-32.86l-53 74.995-53-74.995H50.24l71.815 101.495V235h29.15zm217.515-43.46c-12.455-13.25-18.55-29.68-18.55-49.29s6.095-36.04 18.55-49.025c12.455-13.25 27.825-19.875 46.11-19.875s33.655 6.625 46.11 19.875c12.455 12.985 18.815 29.415 18.815 49.025s-6.36 36.04-18.815 49.29c-12.455 12.985-27.825 19.61-46.11 19.61s-33.655-6.625-46.11-19.61zm113.95 19.345c18.02-18.55 27.03-41.34 27.03-68.635s-9.01-50.085-27.03-68.37c-18.02-18.55-40.545-27.825-67.84-27.825s-49.82 9.275-67.84 27.825c-17.755 18.285-26.765 41.075-26.765 68.37s9.01 50.085 26.765 68.635c18.02 18.285 40.545 27.56 67.84 27.56s49.82-9.275 67.84-27.56zm246.415 27.56c31.005 0 58.83-12.985 73.935-31.005v-79.5h-29.15v67.575c-10.865 10.335-25.97 15.635-44.785 15.635-18.815 0-34.45-6.36-47.435-18.815-12.72-12.72-19.08-29.415-19.08-49.82s6.625-36.835 19.61-49.82S711.86 73.35 732 73.35c19.875 0 38.425 5.83 55.385 17.49V61.955c-15.635-10.6-34.715-15.9-57.24-15.9-27.825 0-51.145 9.01-69.695 27.295-18.55 18.02-27.825 41.075-27.825 68.9 0 27.825 9.275 50.88 27.56 69.165 18.55 18.02 41.605 27.03 68.9 27.03zM948.35 235l19.875-46.11h87.975l20.14 46.11h31.27l-81.09-186.56h-28.085L917.345 235h31.005zm63.86-149.725l33.92 77.91h-67.835l33.915-77.91z" fill="#fff"/></g><defs><filter id="filter0_d" x=".24" y=".055" width="1157.37" height="292.39" filterUnits="userSpaceOnUse" color-interpolation-filters="sRGB"><feFlood flood-opacity="0" result="BackgroundImageFix"/><feColorMatrix in="SourceAlpha" values="0 0 0 0 0 0 0 0 0 0 0 0 0 0 0 0 0 0 127 0"/><feOffset dy="4"/><feGaussianBlur stdDeviation="25"/><feColorMatrix values="0 0 0 0 0.513726 0 0 0 0 0.45098 0 0 0 0 0.631373 0 0 0 0.6 0"/><feBlend in2="BackgroundImageFix" result="effect1_dropShadow"/><feBlend in="SourceGraphic" in2="effect1_dropShadow" result="shape"/></filter></defs></svg>