<?xml version="1.0" encoding="UTF-8" standalone="no"?>
<!-- Generator: Adobe Illustrator 19.0.0, SVG Export Plug-In . SVG Version: 6.00 Build 0)  -->

<svg
   xmlns:dc="http://purl.org/dc/elements/1.1/"
   xmlns:cc="http://creativecommons.org/ns#"
   xmlns:rdf="http://www.w3.org/1999/02/22-rdf-syntax-ns#"
   xmlns:svg="http://www.w3.org/2000/svg"
   xmlns="http://www.w3.org/2000/svg"
   xmlns:sodipodi="http://sodipodi.sourceforge.net/DTD/sodipodi-0.dtd"
   xmlns:inkscape="http://www.inkscape.org/namespaces/inkscape"
   version="1.1"
   id="Layer_1"
   x="0px"
   y="0px"
   viewBox="0 0 200 60.295719"
   xml:space="preserve"
   sodipodi:docname="3d.svg"
   width="200"
   height="60.295719"
   inkscape:version="0.92.1 r15371"><metadata
     id="metadata47"><rdf:RDF><cc:Work
         rdf:about=""><dc:format>image/svg+xml</dc:format><dc:type
           rdf:resource="http://purl.org/dc/dcmitype/StillImage" /><dc:title></dc:title></cc:Work></rdf:RDF></metadata><defs
     id="defs45" /><sodipodi:namedview
     pagecolor="#ffffff"
     bordercolor="#666666"
     borderopacity="1"
     objecttolerance="10"
     gridtolerance="10"
     guidetolerance="10"
     inkscape:pageopacity="0"
     inkscape:pageshadow="2"
     inkscape:window-width="1920"
     inkscape:window-height="1018"
     id="namedview43"
     showgrid="true"
     fit-margin-top="0"
     fit-margin-left="0"
     fit-margin-right="0"
     fit-margin-bottom="0"
     inkscape:zoom="5.6568543"
     inkscape:cx="110.25375"
     inkscape:cy="38.588703"
     inkscape:window-x="-8"
     inkscape:window-y="-8"
     inkscape:window-maximized="1"
     inkscape:current-layer="Layer_1"><inkscape:grid
       type="xygrid"
       id="grid4717"
       originx="0"
       originy="3.3422998" /></sodipodi:namedview><g
     id="g12"
     transform="translate(0,-233.38595)" /><g
     id="g14"
     transform="translate(0,-233.38595)" /><g
     id="g16"
     transform="translate(0,-233.38595)" /><g
     id="g18"
     transform="translate(0,-233.38595)" /><g
     id="g20"
     transform="translate(0,-233.38595)" /><g
     id="g22"
     transform="translate(0,-233.38595)" /><g
     id="g24"
     transform="translate(0,-233.38595)" /><g
     id="g26"
     transform="translate(0,-233.38595)" /><g
     id="g28"
     transform="translate(0,-233.38595)" /><g
     id="g30"
     transform="translate(0,-233.38595)" /><g
     id="g32"
     transform="translate(0,-233.38595)" /><g
     id="g34"
     transform="translate(0,-233.38595)" /><g
     id="g36"
     transform="translate(0,-233.38595)" /><g
     id="g38"
     transform="translate(0,-233.38595)" /><g
     id="g40"
     transform="translate(0,-233.38595)" /><g
     id="g4612"
     transform="matrix(0.12096774,0,0,0.12096774,70,0.29571866)"><circle
       id="circle4524"
       r="128"
       cy="248"
       cx="248"
       style="fill:#0abe74;fill-opacity:1" /><g
       id="g4546"><path
         id="path4526"
         d="m 248,72 c -97.048,0 -176,78.952 -176,176 0,97.048 78.952,176 176,176 97.048,0 176,-78.952 176,-176 C 424,150.952 345.048,72 248,72 Z m 0,336 C 159.776,408 88,336.224 88,248 88,159.776 159.776,88 248,88 c 88.224,0 160,71.776 160,160 0,88.224 -71.776,160 -160,160 z"
         style="fill:#3a3f49;fill-opacity:1"
         inkscape:connector-curvature="0" /><polygon
         id="polygon4528"
         points="256,136 240,136 240,240 136,240 136,256 256,256 "
         style="fill:#ffffff;fill-opacity:1" /><path
         id="path4538"
         d="M 56.568,341.032 47.32,364.16 C 26.824,328.888 16,289.056 16,248 16,120.08 120.08,16 248,16 c 52.904,0 104.68,18.32 145.8,51.584 l 10.064,-12.44 C 359.904,19.584 304.552,0 248,0 111.248,0 0,111.248 0,248 c 0,44.232 11.776,87.12 34.024,125.048 l -24.456,-4.888 -3.136,15.68 46.52,9.304 18.48,-46.176 z"
         style="fill:#3a3f49;fill-opacity:1"
         inkscape:connector-curvature="0" /><circle
         id="circle4540"
         r="8"
         cy="408"
         cx="72"
         style="fill:#3a3f49;fill-opacity:1" /><path
         id="path4542"
         d="m 461.976,122.952 24.456,4.888 3.144,-15.688 -46.52,-9.304 -18.48,46.176 14.856,5.936 9.248,-23.128 C 469.176,167.112 480,206.944 480,248 480,375.92 375.92,480 248,480 195.096,480 143.32,461.68 102.2,428.416 l -10.064,12.44 C 136.096,476.416 191.448,496 248,496 384.752,496 496,384.752 496,248 496,203.768 484.224,160.88 461.976,122.952 Z"
         style="fill:#3a3f49;fill-opacity:1"
         inkscape:connector-curvature="0" /><circle
         id="circle4544"
         r="8"
         cy="88"
         cx="424"
         style="fill:#3a3f49;fill-opacity:1" /></g><g
       id="g4548" /><g
       id="g4550" /><g
       id="g4552" /><g
       id="g4554" /><g
       id="g4556" /><g
       id="g4558" /><g
       id="g4560" /><g
       id="g4562" /><g
       id="g4564" /><g
       id="g4566" /><g
       id="g4568" /><g
       id="g4570" /><g
       id="g4572" /><g
       id="g4574" /><g
       id="g4576" /></g><circle
     style="fill:#0abe74;fill-opacity:1;stroke-width:0.12362637"
     cx="42"
     cy="12.857143"
     r="12.857143"
     id="circle4614" /><path
     inkscape:connector-curvature="0"
     d="M 57.096774,46.747329 H 56.854838 V 31.263457 h 2.17742 v -7.741935 h -34.83871 v 7.741935 h 2.17742 V 46.747329 H 25.001613 L 20.205484,20.374426 C 19.62,17.150877 16.817419,14.811844 13.540645,14.811844 H 2.9032258 C 1.3025806,14.811844 0,16.114426 0,17.715071 c 0,1.600644 1.3025806,2.903226 2.9032258,2.903226 H 13.069355 c 0.932902,0 1.733226,0.665806 1.90258,1.583225 l 4.399355,23.754194 1.903549,-0.351291 -4.399355,-23.754193 c -0.339678,-1.835806 -1.939355,-3.16742 -3.806129,-3.16742 h -2.424193 v -1.935483 h 2.895483 c 2.34,0 4.342259,1.671291 4.76129,3.97258 l 5.083549,27.962903 h 33.71129 c 0.534193,0 0.967741,0.433549 0.967741,0.967742 0,0.534194 -0.433548,0.967742 -0.967741,0.967742 H 21.290323 v 1.935485 h 1.960645 c -0.614516,0.810967 -0.992903,1.809677 -0.992903,2.903225 0,2.668065 2.170645,4.83871 4.83871,4.83871 2.668064,0 4.838709,-2.170645 4.838709,-4.83871 0,-1.093548 -0.378388,-2.092258 -0.992903,-2.903225 H 48.41129 c -0.613548,0.810967 -0.991935,1.809677 -0.991935,2.903225 0,2.668065 2.170645,4.83871 4.83871,4.83871 2.668064,0 4.838709,-2.170645 4.838709,-4.83871 0,-1.093548 -0.378387,-2.092258 -0.992903,-2.903225 h 0.992903 C 58.697419,52.553781 60,51.2512 60,49.650554 60,48.04991 58.697419,46.747329 57.096774,46.747329 Z M 8.7096773,18.682812 H 2.9032258 c -0.5341935,0 -0.9677419,-0.433548 -0.9677419,-0.967741 0,-0.534194 0.4335484,-0.967742 0.9677419,-0.967742 h 5.8064515 z m 17.4193547,6.774194 h 30.967742 v 3.870968 H 26.129032 Z m 21.290323,10.078065 1.935483,1.935483 v 5.405807 H 45.483871 V 37.470554 Z M 28.306452,31.263457 h 18.145162 v 2.502582 l -2.903227,2.903225 v 8.142581 h 7.741936 v -8.142581 l -2.903227,-2.903225 v -2.502582 h 6.532259 V 46.747329 H 28.306452 Z M 30,55.457006 c 0,1.600645 -1.302581,2.903225 -2.903225,2.903225 -1.600646,0 -2.903227,-1.30258 -2.903227,-2.903225 0,-1.600645 1.302581,-2.903225 2.903227,-2.903225 1.600644,0 2.903225,1.30258 2.903225,2.903225 z m 25.161291,0 c 0,1.600645 -1.302582,2.903225 -2.903226,2.903225 -1.600645,0 -2.903227,-1.30258 -2.903227,-2.903225 0,-1.600645 1.302582,-2.903225 2.903227,-2.903225 1.600644,0 2.903226,1.30258 2.903226,2.903225 z"
     id="path4616"
     style="fill:#3a3f49;fill-opacity:1;stroke-width:0.12096775" /><circle
     cx="52.25806"
     cy="55.457001"
     r="0.96774197"
     id="circle4618"
     style="stroke-width:0.12096775" /><circle
     cx="27.096775"
     cy="55.457001"
     r="0.96774197"
     id="circle4620"
     style="stroke-width:0.12096775" /><g
     id="g4628"
     transform="matrix(0.14112903,0,0,0.14112903,0,-9.7042835)" /><g
     id="g4630"
     transform="matrix(0.14112903,0,0,0.14112903,0,-9.7042835)" /><g
     id="g4632"
     transform="matrix(0.14112903,0,0,0.14112903,0,-9.7042835)" /><g
     id="g4634"
     transform="matrix(0.14112903,0,0,0.14112903,0,-9.7042835)" /><g
     id="g4636"
     transform="matrix(0.14112903,0,0,0.14112903,0,-9.7042835)" /><g
     id="g4638"
     transform="matrix(0.14112903,0,0,0.14112903,0,-9.7042835)" /><g
     id="g4640"
     transform="matrix(0.14112903,0,0,0.14112903,0,-9.7042835)" /><g
     id="g4642"
     transform="matrix(0.14112903,0,0,0.14112903,0,-9.7042835)" /><g
     id="g4644"
     transform="matrix(0.14112903,0,0,0.14112903,0,-9.7042835)" /><g
     id="g4646"
     transform="matrix(0.14112903,0,0,0.14112903,0,-9.7042835)" /><g
     id="g4648"
     transform="matrix(0.14112903,0,0,0.14112903,0,-9.7042835)" /><g
     id="g4650"
     transform="matrix(0.14112903,0,0,0.14112903,0,-9.7042835)" /><g
     id="g4652"
     transform="matrix(0.14112903,0,0,0.14112903,0,-9.7042835)" /><g
     id="g4654"
     transform="matrix(0.14112903,0,0,0.14112903,0,-9.7042835)" /><g
     id="g4656"
     transform="matrix(0.14112903,0,0,0.14112903,0,-9.7042835)" /><g
     id="g4715"
     transform="matrix(0.12096774,0,0,0.12096774,140,0.29571766)"><g
       id="g4695"
       style="fill:#f0bc5e"><path
         id="path4689"
         d="m 104,416 h 288 v 32 H 104 Z m 0,0"
         inkscape:connector-curvature="0"
         style="fill:#0abe74;fill-opacity:1" /><path
         id="path4691"
         d="M 485.15234,105.60156 456,40 H 40 L 10.847656,105.60156 C 8.96875,109.81641 8,114.38281 8,119 c 0,18.22266 14.777344,33 33,33 h 5.238281 c 15.144531,0 28.335938,-10.30469 32.019531,-24.99219 L 80,120 c 0,17.67187 14.328125,32 32,32 h 4.22266 c 12.12109,0 23.20312,-6.84766 28.625,-17.6875 L 152,120 v 0.55078 C 152,137.92187 166.07812,152 183.44922,152 c 14.42969,0 27.00781,-9.82422 30.51172,-23.81641 L 216,120 c 0,17.67187 14.32812,32 32,32 17.67187,0 32,-14.32813 32,-32 l 2.04687,8.18359 C 285.55078,142.18359 298.12891,152 312.55859,152 329.92187,152 344,137.92187 344,120.55078 V 120 l 7.15234,14.3125 C 356.57422,145.15234 367.65625,152 379.77734,152 H 384 c 17.67187,0 32,-14.32813 32,-32 l 1.75391,7.00781 C 421.42578,141.69531 434.625,152 449.76172,152 H 455 c 18.22266,0 33,-14.77734 33,-33 0,-4.61719 -0.96875,-9.18359 -2.84766,-13.39844 z m 0,0"
         inkscape:connector-curvature="0"
         style="fill:#0abe74;fill-opacity:1" /><path
         id="path4693"
         d="m 105.12891,464 c 3.5664,13.77734 15.97656,24 30.87109,24 h 224 c 14.89453,0 27.29687,-10.22266 30.87109,-24 z m 0,0"
         inkscape:connector-curvature="0"
         style="fill:#0abe74;fill-opacity:1" /></g><path
       id="path4697"
       d="m 496,119 c 0,-5.77734 -1.18359,-11.375 -3.52734,-16.65625 L 464,38.296875 V 32 C 464,14.351562 449.64844,0 432,0 H 64 C 46.351562,0 32,14.351562 32,32 v 6.296875 L 3.527344,102.35156 C 1.183594,107.63281 0,113.23047 0,119 c 0,19.50391 13.71875,35.80859 32,39.92969 V 352 h 64 v 104 c 0,22.05469 17.94531,40 40,40 h 224 c 22.05469,0 40,-17.94531 40,-40 V 352 h 64 V 158.9375 C 482.28125,154.80859 496,138.51172 496,119 Z M 64,16 h 368 c 8.82422,0 16,7.175781 16,16 H 48 C 48,23.175781 55.175781,16 64,16 Z M 336,120.55078 C 336,133.48828 325.48828,144 312.55078,144 c -10.78125,0 -20.13672,-7.30469 -22.75,-17.76172 L 288,119.02344 V 48 h 40.76172 z m -128,-1.52734 -1.80859,7.20703 C 203.57422,136.69531 194.22266,144 183.44922,144 170.51953,144 160,133.48828 159.96094,120.80078 L 167.23828,48 H 208 Z m -63.81641,-1.28906 -6.49609,12.99999 C 133.59375,138.92187 125.375,144 116.22266,144 H 112 C 98.769531,144 88,133.23047 88,120 H 87.832031 L 102.52734,48 h 48.625 z M 224,48 h 48 v 72 c 0,13.23047 -10.76953,24 -24,24 -13.23047,0 -24,-10.76953 -24,-24 z M 351.69531,117.50391 344.83203,48 h 48.61719 L 408,120.73438 C 407.60156,133.63281 396.98437,144 384,144 h -4.22266 c -9.15234,0 -17.37109,-5.07813 -21.46484,-13.26563 z M 16,119 c 0,-3.51953 0.726562,-6.9375 2.160156,-10.15234 L 45.199219,48 h 41.039062 l -14,70.0625 -1.75,7 C 67.703125,136.21484 57.726562,144 46.230469,144 H 41 C 27.214844,144 16,132.78516 16,119 Z M 384,265.05469 358.42578,248 384,230.94531 Z M 329.57422,248 l 36,24 H 130.42578 l 36,-24 -36,-24 H 365.58594 Z M 112,230.94531 137.57422,248 112,265.05469 Z M 360,480 H 136 c -13.23047,0 -24,-10.76953 -24,-24 V 288 h 272 v 168 c 0,13.23047 -10.76953,24 -24,24 z M 400,336 V 208 H 96 V 336 H 48 V 159.84766 C 60.769531,159.29687 72.167969,152.92969 79.367188,142.98437 86.617188,153.23828 98.511719,160 112,160 h 4.22266 c 13.92968,0 26.51171,-7.12891 33.79296,-18.75391 6.96875,11.21094 19.28907,18.75391 33.4336,18.75391 13.125,0 24.93359,-6.49609 32.15234,-16.72656 C 222.87109,153.35937 234.64844,160 248,160 c 13.35156,0 25.12891,-6.64063 32.39844,-16.72656 C 287.625,153.50391 299.42578,160 312.55078,160 c 14.13672,0 26.46484,-7.54297 33.43359,-18.75391 C 353.26562,152.87109 365.84766,160 379.77734,160 H 384 c 13.48828,0 25.38281,-6.75391 32.63281,-17.01563 7.19141,9.94532 18.59766,16.3125 31.36719,16.86329 V 336 Z m 55,-192 h -5.23047 c -11.49609,0 -21.47266,-7.78516 -24.25781,-18.9375 L 409.79297,48 h 41 l 27.04687,60.84766 C 479.27344,112.0625 480,115.48047 480,119 c 0,13.78516 -11.21484,25 -25,25 z m 0,0"
       inkscape:connector-curvature="0"
       style="fill:#3a3f49;fill-opacity:1" /><path
       id="path4699"
       d="m 272,320 h 16 v 40 c 0,22.05469 -17.94531,40 -40,40 -22.05469,0 -40,-17.94531 -40,-40 v -40 h 16 v -16 h -48 v 16 h 16 v 40 c 0,30.87109 25.12891,56 56,56 30.87109,0 56,-25.12891 56,-56 v -40 h 16 v -16 h -48 z m 0,0"
       inkscape:connector-curvature="0"
       style="fill:#3a3f49;fill-opacity:1" /></g><g
     id="g4725"
     transform="matrix(0.85714287,0,0,0.85714287,-1.1081942,-2.9255293)"
     style="stroke:#ffffff;stroke-width:2;stroke-miterlimit:4;stroke-dasharray:none;stroke-opacity:1"><path
       inkscape:connector-curvature="0"
       id="path4719"
       d="m 44.292893,21.415819 6,5 6,-5"
       style="fill:none;stroke:#ffffff;stroke-width:2;stroke-linecap:butt;stroke-linejoin:miter;stroke-miterlimit:4;stroke-dasharray:none;stroke-opacity:1"
       sodipodi:nodetypes="ccc" /><path
       inkscape:connector-curvature="0"
       id="path4721"
       d="m 50.292893,10.415819 v 15"
       style="fill:none;stroke:#ffffff;stroke-width:2;stroke-linecap:butt;stroke-linejoin:miter;stroke-miterlimit:4;stroke-dasharray:none;stroke-opacity:1"
       sodipodi:nodetypes="cc" /></g></svg>