<?xml version="1.0" encoding="UTF-8" standalone="no"?>
<svg
   xmlns:dc="http://purl.org/dc/elements/1.1/"
   xmlns:cc="http://creativecommons.org/ns#"
   xmlns:rdf="http://www.w3.org/1999/02/22-rdf-syntax-ns#"
   xmlns:svg="http://www.w3.org/2000/svg"
   xmlns="http://www.w3.org/2000/svg"
   xmlns:sodipodi="http://sodipodi.sourceforge.net/DTD/sodipodi-0.dtd"
   xmlns:inkscape="http://www.inkscape.org/namespaces/inkscape"
   width="111"
   height="35"
   viewBox="0 0 111 35"
   version="1.1"
   id="svg7"
   sodipodi:docname="arrows.svg"
   inkscape:version="0.92.1 r15371">
  <metadata
     id="metadata11">
    <rdf:RDF>
      <cc:Work
         rdf:about="">
        <dc:format>image/svg+xml</dc:format>
        <dc:type
           rdf:resource="http://purl.org/dc/dcmitype/StillImage" />
        <dc:title></dc:title>
      </cc:Work>
    </rdf:RDF>
  </metadata>
  <sodipodi:namedview
     pagecolor="#ffffff"
     bordercolor="#666666"
     borderopacity="1"
     objecttolerance="10"
     gridtolerance="10"
     guidetolerance="10"
     inkscape:pageopacity="0"
     inkscape:pageshadow="2"
     inkscape:window-width="1920"
     inkscape:window-height="1017"
     id="namedview9"
     showgrid="false"
     showguides="true"
     inkscape:guide-bbox="true"
     fit-margin-top="0"
     fit-margin-left="0"
     fit-margin-right="0"
     fit-margin-bottom="0"
     inkscape:zoom="6.3333333"
     inkscape:cx="22.877884"
     inkscape:cy="-17.298919"
     inkscape:window-x="-8"
     inkscape:window-y="-8"
     inkscape:window-maximized="1"
     inkscape:current-layer="svg7">
    <sodipodi:guide
       position="30.65625,14.998224"
       orientation="0,1"
       id="guide4492"
       inkscape:locked="false" />
  </sodipodi:namedview>
  <defs
     id="defs4">
    <style
       id="style2">
      .cls-1 {
        fill: #3a3f49;
        fill-rule: evenodd;
      }
    </style>
    <style
       id="style4489">
      .cls-1 {
        fill: #3a3f49;
        fill-rule: evenodd;
      }
    </style>
  </defs>
  <path
     id="arraw_копия"
     data-name="arraw копия"
     class="cls-1"
     d="M 23.634459,35 22.925458,34.27889 28.078201,29.010055 0,29.01 v -1 l 28.078201,5.5e-5 L 22.925458,22.721109 23.634459,22 30,28.501831 Z"
     inkscape:connector-curvature="0"
     style="fill:#3a3f49;fill-rule:evenodd;stroke-width:0.99999994"
     sodipodi:nodetypes="cccccccccc" />
  <path
     sodipodi:nodetypes="cccccccccc"
     style="fill:#3a3f49;fill-rule:evenodd;stroke-width:0.99999994"
     inkscape:connector-curvature="0"
     d="M 36.365541,35 37.074542,34.27889 31.921799,29.010055 60,29.01 v -1 l -28.078201,5.5e-5 5.152743,-5.288946 L 36.365541,22 30,28.501831 Z"
     class="cls-1"
     data-name="arraw копия"
     id="path4494" />
  <path
     id="path4496"
     data-name="arraw копия"
     class="cls-1"
     d="M 68,11.365541 68.72111,12.074542 73.989945,6.921799 73.99,35 h 1 L 74.989945,6.921799 80.278891,12.074542 81,11.365541 74.498169,5 Z"
     inkscape:connector-curvature="0"
     style="fill:#3a3f49;fill-rule:evenodd;stroke-width:0.99999994"
     sodipodi:nodetypes="cccccccccc" />
  <path
     sodipodi:nodetypes="cccccccccc"
     style="fill:#ffffff;fill-rule:evenodd;stroke-width:0.99999994"
     inkscape:connector-curvature="0"
     d="M 23.634459,20 22.925458,19.27889 28.078201,14.010055 0,14.01 v -1 l 28.078201,5.5e-5 L 22.925458,7.721109 23.634459,7 30,13.501831 Z"
     class="cls-1"
     data-name="arraw копия"
     id="path4500" />
  <path
     id="path4502"
     data-name="arraw копия"
     class="cls-1"
     d="M 36.365541,20 37.074542,19.27889 31.921799,14.010055 60,14.01 v -1 L 31.921799,13.010055 37.074542,7.721109 36.365541,7 30,13.501831 Z"
     inkscape:connector-curvature="0"
     style="fill:#ffffff;fill-rule:evenodd;stroke-width:0.99999994"
     sodipodi:nodetypes="cccccccccc" />
  <path
     sodipodi:nodetypes="cccccccccc"
     style="fill:#ffffff;fill-rule:evenodd;stroke-width:0.99999994"
     inkscape:connector-curvature="0"
     d="m 98,11.365541 0.72111,0.709001 5.26884,-5.152743 L 103.99,35 h 1 l -5e-5,-28.078201 5.28894,5.152743 L 111,11.365541 104.49817,5 Z"
     class="cls-1"
     data-name="arraw копия"
     id="path4504" />
  <path
     d="M 6.8568578,5 4,2.221779 1.1431421,5 0,3.8891105 4,0 8,3.8891105 Z"
     class="cls-1"
     id="arrow"
     inkscape:connector-curvature="0"
     style="fill:#3a3f49;fill-rule:evenodd;stroke-width:0.99999988" />
  <path
     style="fill:#3a3f49;fill-rule:evenodd;stroke-width:1"
     inkscape:connector-curvature="0"
     id="path4503"
     class="cls-1"
     d="M 14.856858,0 12,2.778221 9.1431422,0 8,1.1108895 12,5 16,1.1108895 Z" />
</svg>
