<?xml version="1.0" encoding="UTF-8" standalone="no"?>
<!-- Created with Inkscape (http://www.inkscape.org/) -->

<svg
   xmlns:dc="http://purl.org/dc/elements/1.1/"
   xmlns:cc="http://creativecommons.org/ns#"
   xmlns:rdf="http://www.w3.org/1999/02/22-rdf-syntax-ns#"
   xmlns:svg="http://www.w3.org/2000/svg"
   xmlns="http://www.w3.org/2000/svg"
   xmlns:sodipodi="http://sodipodi.sourceforge.net/DTD/sodipodi-0.dtd"
   xmlns:inkscape="http://www.inkscape.org/namespaces/inkscape"
   width="27.252708mm"
   height="5.2922997mm"
   viewBox="0 0 27.252709 5.2922998"
   version="1.1"
   id="svg4619"
   inkscape:version="0.92.1 r15371"
   sodipodi:docname="contacts.svg">
  <defs
     id="defs4613" />
  <sodipodi:namedview
     id="base"
     pagecolor="#ffffff"
     bordercolor="#666666"
     borderopacity="1.0"
     inkscape:pageopacity="0.0"
     inkscape:pageshadow="2"
     inkscape:zoom="5.6"
     inkscape:cx="36.896374"
     inkscape:cy="15.156707"
     inkscape:document-units="mm"
     inkscape:current-layer="layer1"
     showgrid="true"
     fit-margin-top="0"
     fit-margin-left="0"
     fit-margin-right="0"
     fit-margin-bottom="0"
     inkscape:window-width="1920"
     inkscape:window-height="1018"
     inkscape:window-x="-8"
     inkscape:window-y="-8"
     inkscape:window-maximized="1">
    <inkscape:grid
       type="xygrid"
       id="grid5190"
       originx="6.3499997"
       originy="3.0786274e-006" />
  </sodipodi:namedview>
  <metadata
     id="metadata4616">
    <rdf:RDF>
      <cc:Work
         rdf:about="">
        <dc:format>image/svg+xml</dc:format>
        <dc:type
           rdf:resource="http://purl.org/dc/dcmitype/StillImage" />
        <dc:title></dc:title>
      </cc:Work>
    </rdf:RDF>
  </metadata>
  <g
     inkscape:label="Layer 1"
     inkscape:groupmode="layer"
     id="layer1"
     transform="translate(33.583184,-134.84929)">
    <path
       style="fill:none;fill-opacity:1;stroke:#00b66b;stroke-width:0.25205112;stroke-linecap:round;stroke-linejoin:round;stroke-miterlimit:4;stroke-dasharray:none;stroke-dashoffset:0;stroke-opacity:1;paint-order:normal"
       d="m -27.107158,134.97594 v 5.03962 h 3.959693 v -3.23975 l -1.79986,-1.79987 z"
       id="rect4546"
       inkscape:connector-curvature="0"
       sodipodi:nodetypes="cccccc" />
    <path
       style="fill:none;fill-opacity:1;stroke:#00b66b;stroke-width:0.25198486;stroke-linecap:round;stroke-linejoin:round;stroke-miterlimit:4;stroke-dasharray:none;stroke-dashoffset:0;stroke-opacity:1;paint-order:normal"
       d="m -20.185595,134.97588 a 2.1592653,2.1592653 0 0 0 -2.159097,2.1591 2.1592653,2.1592653 0 0 0 1.089637,1.87266 h -0.01034 c 0,0 0.03979,0.0196 0.0625,0.03 a 2.1592653,2.1592653 0 0 0 0.08121,0.0409 c 0.227728,0.12261 0.675077,0.41506 0.936085,0.93707 0.265087,-0.53017 0.723777,-0.82439 0.947896,-0.94347 a 2.1592653,2.1592653 0 0 0 0.09203,-0.0453 c 0.0096,-0.004 0.03986,-0.0192 0.03986,-0.0192 h -0.0089 a 2.1592653,2.1592653 0 0 0 1.088162,-1.87266 2.1592653,2.1592653 0 0 0 -2.159097,-2.1591 z m 0,0.68853 a 1.0796327,1.0957871 0 0 1 1.079794,1.09604 1.0796327,1.0957871 0 0 1 -1.079794,1.09603 1.0796327,1.0957871 0 0 1 -1.079795,-1.09603 1.0796327,1.0957871 0 0 1 1.079795,-1.09604 z"
       id="path4555"
       inkscape:connector-curvature="0" />
    <g
       aria-label=""
       style="font-style:normal;font-weight:normal;font-size:40px;line-height:1.25;font-family:sans-serif;letter-spacing:0px;word-spacing:0px;fill:none;fill-opacity:1;stroke:#00b66b;stroke-width:1.80428684;stroke-linecap:round;stroke-linejoin:round;stroke-miterlimit:4;stroke-dasharray:none;stroke-opacity:1"
       id="text4579"
       transform="matrix(0.1466415,0,0,0.1466415,-37.152738,137.76584)">
      <path
         d="m 209.28571,-1.843999 c 0,-9.464286 -7.67857,-17.142857 -17.14285,-17.142857 -9.46429,0 -17.14286,7.678571 -17.14286,17.142857 0,9.4642857 7.67857,17.142857 17.14286,17.142857 9.46428,0 17.14285,-7.6785713 17.14285,-17.142857 z"
         id="path4581"
         inkscape:connector-curvature="0"
         style="fill:none;fill-opacity:1;stroke:#00b66b;stroke-width:1.80428684;stroke-linecap:round;stroke-linejoin:round;stroke-miterlimit:4;stroke-dasharray:none;stroke-opacity:1"
         sodipodi:nodetypes="sssss" />
    </g>
    <rect
       style="fill:#00b66b;fill-opacity:1;stroke:none;stroke-width:0.26458332;stroke-linecap:round;stroke-linejoin:round;stroke-miterlimit:4;stroke-dasharray:none;stroke-dashoffset:0;stroke-opacity:1;paint-order:normal"
       id="rect4584"
       width="0.26458332"
       height="2.2672219"
       x="-8.9769344"
       y="135.75768"
       rx="0.13229166" />
    <rect
       rx="0.13177493"
       y="8.7123508"
       x="-138.02492"
       height="1.3229166"
       width="0.26354986"
       id="rect4586"
       style="fill:#00b66b;fill-opacity:1;stroke:none;stroke-width:0.26354986;stroke-linecap:round;stroke-linejoin:round;stroke-miterlimit:4;stroke-dasharray:none;stroke-dashoffset:0;stroke-opacity:1;paint-order:normal"
       transform="matrix(0,-1,-1,0,0,0)" />
    <g
       aria-label=""
       style="font-style:normal;font-weight:normal;font-size:10.58333302px;line-height:1.25;font-family:sans-serif;letter-spacing:0px;word-spacing:0px;fill:none;fill-opacity:1;stroke:#00b66b;stroke-width:0.43722713;stroke-linecap:round;stroke-linejoin:round;stroke-miterlimit:4;stroke-dasharray:none;stroke-opacity:1"
       id="text4495"
       transform="matrix(0.6045707,0,0,0.6045707,-10.588257,56.883515)">
      <path
         d="m -29.501041,135.7476 c 0,-0.0413 0,-0.0827 -0.01772,-0.12402 -0.04134,-0.12402 -0.330729,-0.25395 -0.448846,-0.31301 -0.336635,-0.18899 -0.679176,-0.37207 -1.009905,-0.56697 -0.153553,-0.0945 -0.342541,-0.27167 -0.525624,-0.27167 -0.360258,0 -0.885881,1.06897 -1.204799,1.06897 -0.159458,0 -0.366164,-0.14765 -0.507905,-0.23033 -1.07487,-0.5965 -1.81901,-1.34064 -2.415504,-2.41551 -0.08268,-0.14174 -0.230329,-0.34844 -0.230329,-0.5079 0,-0.31892 1.068964,-0.84454 1.068964,-1.2048 0,-0.18308 -0.177177,-0.37207 -0.271671,-0.52562 -0.194894,-0.33073 -0.377976,-0.67327 -0.566964,-1.00991 -0.05906,-0.11812 -0.188988,-0.4075 -0.313012,-0.44885 -0.04134,-0.0177 -0.08268,-0.0177 -0.124023,-0.0177 -0.212612,0 -0.626023,0.0945 -0.820917,0.18308 -0.289388,0.12402 -0.478376,0.45475 -0.626023,0.72052 -0.188988,0.34844 -0.3012,0.7028 -0.3012,1.09849 0,0.54925 0.224423,1.04534 0.407506,1.54734 0.129929,0.36026 0.289388,0.7087 0.490188,1.03353 0.620117,1.004 1.830822,2.2147 2.834821,2.83482 0.324823,0.2008 0.67327,0.36026 1.033529,0.49019 0.501999,0.18308 0.998093,0.4075 1.547339,0.4075 0.395694,0 0.750047,-0.11221 1.098494,-0.3012 0.265764,-0.14764 0.596493,-0.33663 0.720517,-0.62602 0.08859,-0.19489 0.183082,-0.60831 0.183082,-0.82092 z"
         style="fill:none;stroke:#00b66b;stroke-width:0.43722713;stroke-linecap:round;stroke-linejoin:round;stroke-miterlimit:4;stroke-dasharray:none;stroke-opacity:1"
         id="path4497"
         inkscape:connector-curvature="0" />
    </g>
    <path
       style="fill:none;stroke:#00b66b;stroke-width:0.26284608;stroke-linecap:round;stroke-linejoin:round;stroke-miterlimit:4;stroke-dasharray:none;stroke-opacity:1"
       d="m -26.041556,137.6289 h 1.851827"
       id="path4503"
       inkscape:connector-curvature="0" />
    <path
       style="fill:none;stroke:#00b66b;stroke-width:0.26284608;stroke-linecap:round;stroke-linejoin:round;stroke-miterlimit:4;stroke-dasharray:none;stroke-opacity:1"
       d="m -26.041556,138.43562 h 1.851827"
       id="path4505"
       inkscape:connector-curvature="0" />
    <path
       style="fill:none;stroke:#00b66b;stroke-width:0.26284608;stroke-linecap:round;stroke-linejoin:round;stroke-miterlimit:4;stroke-dasharray:none;stroke-opacity:1"
       d="m -26.041556,139.22937 h 1.851827"
       id="path4507"
       inkscape:connector-curvature="0" />
    <path
       style="fill:none;stroke:#00b66b;stroke-width:0.26458332;stroke-linecap:round;stroke-linejoin:round;stroke-miterlimit:4;stroke-dasharray:none;stroke-opacity:1"
       d="m -24.984226,135.08169 v 1.75259 h 1.699684"
       id="path4509"
       inkscape:connector-curvature="0"
       sodipodi:nodetypes="ccc" />
    <rect
       style="fill:none;fill-opacity:1;stroke:#00b66b;stroke-width:0.24390306;stroke-linecap:round;stroke-linejoin:round;stroke-miterlimit:4;stroke-dasharray:none;stroke-dashoffset:0;stroke-opacity:1;paint-order:normal"
       id="rect4511"
       width="5.57693"
       height="3.9894302"
       x="-17.586233"
       y="136.0302"
       rx="0.25349683" />
    <path
       style="fill:none;stroke:#00b66b;stroke-width:0.26458246;stroke-linecap:round;stroke-linejoin:round;stroke-miterlimit:4;stroke-dasharray:none;stroke-opacity:1"
       d="m -17.443602,136.04055 2.645815,2.11666 2.645815,-2.11666"
       id="path4513"
       inkscape:connector-curvature="0" />
    <path
       style="fill:none;stroke:#00b66b;stroke-width:0.26458332;stroke-linecap:round;stroke-linejoin:round;stroke-miterlimit:4;stroke-dasharray:none;stroke-opacity:1"
       d="m -16.780258,139.21553 h 1.131627"
       id="path4515"
       inkscape:connector-curvature="0" />
  </g>
</svg>
