<?xml version="1.0" encoding="UTF-8" standalone="no"?>
<!-- Generator: Adobe Illustrator 22.0.1, SVG Export Plug-In . SVG Version: 6.00 Build 0)  -->

<svg
   xmlns:dc="http://purl.org/dc/elements/1.1/"
   xmlns:cc="http://creativecommons.org/ns#"
   xmlns:rdf="http://www.w3.org/1999/02/22-rdf-syntax-ns#"
   xmlns:svg="http://www.w3.org/2000/svg"
   xmlns="http://www.w3.org/2000/svg"
   xmlns:sodipodi="http://sodipodi.sourceforge.net/DTD/sodipodi-0.dtd"
   xmlns:inkscape="http://www.inkscape.org/namespaces/inkscape"
   version="1.1"
   id="Слой_1"
   x="0px"
   y="0px"
   viewBox="0 0 169 80"
   xml:space="preserve"
   sodipodi:docname="icons_header.svg"
   inkscape:version="0.92.1 r15371"
   width="169"
   height="80"><metadata
     id="metadata17"><rdf:RDF><cc:Work
         rdf:about=""><dc:format>image/svg+xml</dc:format><dc:type
           rdf:resource="http://purl.org/dc/dcmitype/StillImage" /><dc:title></dc:title></cc:Work></rdf:RDF></metadata><defs
     id="defs15"><inkscape:perspective
       sodipodi:type="inkscape:persp3d"
       inkscape:vp_x="0 : 19 : 1"
       inkscape:vp_y="0 : 999.99998 : 0"
       inkscape:vp_z="83 : 19 : 1"
       inkscape:persp3d-origin="41.5 : 12.666667 : 1"
       id="perspective4537" /><style
       id="style4531">
      .cls-1 {
        fill: #848484;
        fill-rule: evenodd;
      }
    </style><style
       id="style4544">
      .cls-1 {
        fill: #848484;
        fill-rule: evenodd;
      }
    </style><style
       id="style4567">
      .cls-1 {
        fill: #3a3f49;
        fill-rule: evenodd;
      }
    </style></defs><sodipodi:namedview
     pagecolor="#ffffff"
     bordercolor="#666666"
     borderopacity="1"
     objecttolerance="10"
     gridtolerance="10"
     guidetolerance="10"
     inkscape:pageopacity="0"
     inkscape:pageshadow="2"
     inkscape:window-width="1920"
     inkscape:window-height="1018"
     id="namedview13"
     showgrid="true"
     inkscape:zoom="5.2251178"
     inkscape:cx="81.910654"
     inkscape:cy="69.731511"
     inkscape:window-x="-8"
     inkscape:window-y="-8"
     inkscape:window-maximized="1"
     inkscape:current-layer="Слой_1"
     fit-margin-top="0"
     fit-margin-left="0"
     fit-margin-right="0"
     fit-margin-bottom="0"><inkscape:grid
       type="xygrid"
       id="grid4531"
       originx="2.8421709e-014"
       originy="29.999997" /></sodipodi:namedview><g
     id="g4527"
     transform="translate(-6)"><path
       sodipodi:nodetypes="ssscsss"
       inkscape:connector-curvature="0"
       id="rect4501"
       d="m 28.136364,21.5 h 2.727272 C 31.770182,21.5 32.5,22.169 32.5,23 v 1.5 H 28.136364 C 27.229818,24.5 26.5,23.831 26.5,23 c 0,-0.831 0.729818,-1.5 1.636364,-1.5 z"
       style="opacity:1;vector-effect:none;fill:none;fill-opacity:1;stroke:#848484;stroke-width:0.99999988;stroke-linecap:round;stroke-linejoin:round;stroke-miterlimit:4;stroke-dasharray:none;stroke-dashoffset:1;stroke-opacity:1;paint-order:markers fill stroke" /><path
       sodipodi:nodetypes="csssssssssc"
       inkscape:connector-curvature="0"
       id="rect4503"
       d="m 32.5,28.5 h 19.849741 c 1.191244,0 2.150258,1.003501 2.150258,2.250001 v 1.697368 c 0,1.184211 -0.04294,1.72512 -0.713535,2.4813 L 46.886283,42.70954 C 46.341001,43.324418 45.657549,43.5 45.446446,43.5 H 34.650259 C 33.459015,43.5 32.5,42.4965 32.5,41.25 V 30.750001 Z"
       style="opacity:1;vector-effect:none;fill:none;fill-opacity:1;stroke:#848484;stroke-width:1;stroke-linecap:round;stroke-linejoin:round;stroke-miterlimit:4;stroke-dasharray:none;stroke-dashoffset:1;stroke-opacity:1;paint-order:markers fill stroke" /><circle
       r="2"
       cy="47.5"
       cx="34.5"
       id="path4505"
       style="opacity:1;vector-effect:none;fill:none;fill-opacity:1;stroke:#848484;stroke-width:0.99999994;stroke-linecap:round;stroke-linejoin:round;stroke-miterlimit:4;stroke-dasharray:none;stroke-dashoffset:1;stroke-opacity:1;paint-order:markers fill stroke" /><circle
       style="opacity:1;vector-effect:none;fill:none;fill-opacity:1;stroke:#848484;stroke-width:0.99999994;stroke-linecap:round;stroke-linejoin:round;stroke-miterlimit:4;stroke-dasharray:none;stroke-dashoffset:1;stroke-opacity:1;paint-order:markers fill stroke"
       id="circle4507"
       cx="44.5"
       cy="47.5"
       r="2" /><path
       sodipodi:nodetypes="cc"
       inkscape:connector-curvature="0"
       id="path4509"
       d="M 36.5,47.4375 H 43"
       style="fill:none;fill-rule:evenodd;stroke:#848484;stroke-width:0.99999988px;stroke-linecap:butt;stroke-linejoin:miter;stroke-opacity:1" /><path
       sodipodi:nodetypes="cc"
       inkscape:connector-curvature="0"
       id="path4511"
       d="m 34.5,43 v 3"
       style="fill:none;fill-rule:evenodd;stroke:#848484;stroke-width:1px;stroke-linecap:butt;stroke-linejoin:miter;stroke-opacity:1" /><path
       sodipodi:nodetypes="cc"
       inkscape:connector-curvature="0"
       id="path4513"
       d="m 44.5,43 v 3"
       style="fill:none;fill-rule:evenodd;stroke:#848484;stroke-width:1px;stroke-linecap:butt;stroke-linejoin:miter;stroke-opacity:1" /><path
       sodipodi:nodetypes="cc"
       inkscape:connector-curvature="0"
       id="path4515"
       d="M 32.5,22.999999 V 41"
       style="fill:none;fill-rule:evenodd;stroke:#848484;stroke-width:0.99999994px;stroke-linecap:butt;stroke-linejoin:miter;stroke-opacity:1" /><path
       sodipodi:nodetypes="cc"
       inkscape:connector-curvature="0"
       id="path4518"
       d="m 36.50005,32.507121 v 6.985758"
       style="fill:none;fill-rule:evenodd;stroke:#848484;stroke-width:1px;stroke-linecap:round;stroke-linejoin:miter;stroke-opacity:1" /><path
       sodipodi:nodetypes="cc"
       style="fill:none;fill-rule:evenodd;stroke:#848484;stroke-width:1px;stroke-linecap:round;stroke-linejoin:miter;stroke-opacity:1"
       d="m 40.5,32.507121 v 6.985758"
       id="path4520"
       inkscape:connector-curvature="0" /><path
       sodipodi:nodetypes="cc"
       inkscape:connector-curvature="0"
       id="path4522"
       d="m 44.49995,32.507121 v 6.985758"
       style="fill:none;fill-rule:evenodd;stroke:#848484;stroke-width:1px;stroke-linecap:round;stroke-linejoin:miter;stroke-opacity:1" /><path
       sodipodi:nodetypes="cc"
       style="fill:none;fill-rule:evenodd;stroke:#848484;stroke-width:0.99999994px;stroke-linecap:round;stroke-linejoin:miter;stroke-opacity:1"
       d="m 48.50005,32.479009 v 3.041982"
       id="path4526"
       inkscape:connector-curvature="0" /></g><path
     style="opacity:1;vector-effect:none;fill:none;fill-opacity:1;stroke:#848484;stroke-width:1;stroke-linecap:round;stroke-linejoin:round;stroke-miterlimit:4;stroke-dasharray:none;stroke-dashoffset:1;stroke-opacity:1;paint-order:markers fill stroke"
     d="m 57.54347,24.722222 c -3.96512,0 -7.043469,3.260703 -7.043469,7.282991 0,9.119427 11.790491,15.400251 13.999999,17.494804 2.209511,-2.094553 14.000002,-8.375377 14.000002,-17.494804 0,-4.022288 -3.078349,-7.282991 -7.04347,-7.282991 -3.361461,0 -6.175215,2.346374 -6.956532,5.5106 -0.781316,-3.164226 -3.595069,-5.5106 -6.95653,-5.5106 z"
     id="path4529"
     inkscape:connector-curvature="0" /><path
     style="opacity:1;vector-effect:none;fill:none;fill-opacity:1;stroke:#848484;stroke-width:1;stroke-linecap:round;stroke-linejoin:round;stroke-miterlimit:4;stroke-dasharray:none;stroke-dashoffset:1;stroke-opacity:1;paint-order:markers fill stroke"
     d="M 6.7059,32.499999 A 6.2058975,6.1960959 0 0 0 0.5,38.696095 a 6.2058975,6.1960959 0 0 0 6.2059,6.196096 6.2058975,6.1960959 0 0 0 4.49749,-1.938827 l 4.36607,4.359177 c 0.2559,0.255499 0.66784,0.255499 0.92374,0 0.2559,-0.255499 0.2559,-0.666782 0,-0.922281 L 12.00337,41.907517 A 6.2058975,6.1960959 0 0 0 12.91179,38.696095 6.2058975,6.1960959 0 0 0 6.7059,32.499999 Z"
     id="path4535"
     inkscape:connector-curvature="0" /><rect
     style="opacity:1;vector-effect:none;fill:none;fill-opacity:1;stroke:#ff0101;stroke-width:1;stroke-linecap:round;stroke-linejoin:round;stroke-miterlimit:4;stroke-dasharray:none;stroke-dashoffset:1;stroke-opacity:1;paint-order:markers fill stroke"
     id="rect4625"
     width="19"
     height="19"
     x="0.5"
     y="0.5" /><path
     style="fill:none;fill-rule:evenodd;stroke:#ff0101;stroke-width:1px;stroke-linecap:round;stroke-linejoin:miter;stroke-opacity:1"
     d="m 4.50505,15.494949 10.9899,-10.9899"
     id="path4627"
     inkscape:connector-curvature="0" /><circle
     style="opacity:1;vector-effect:none;fill:none;fill-opacity:1;stroke:#ff0101;stroke-width:1;stroke-linecap:round;stroke-linejoin:round;stroke-miterlimit:4;stroke-dasharray:none;stroke-dashoffset:1;stroke-opacity:1;paint-order:markers fill stroke"
     id="path4637"
     cx="6"
     cy="6"
     r="1.5" /><circle
     r="1.5"
     cy="14"
     cx="14"
     id="circle4639"
     style="opacity:1;vector-effect:none;fill:none;fill-opacity:1;stroke:#ff0101;stroke-width:1;stroke-linecap:round;stroke-linejoin:round;stroke-miterlimit:4;stroke-dasharray:none;stroke-dashoffset:1;stroke-opacity:1;paint-order:markers fill stroke" /><g
     id="g4543"><path
       sodipodi:nodetypes="ccccc"
       inkscape:connector-curvature="0"
       id="path4663"
       d="m 29.3604,4.4999944 7.139664,2.533513 -7.000075,2.466494 -7.000076,-2.466494 z"
       style="fill:none;fill-rule:evenodd;stroke:#00b66b;stroke-width:1px;stroke-linecap:round;stroke-linejoin:round;stroke-opacity:1" /><path
       sodipodi:nodetypes="cc"
       inkscape:connector-curvature="0"
       id="path4665"
       d="M 29.5,9.4999984 V 18.999997"
       style="fill:none;fill-rule:evenodd;stroke:#00b66b;stroke-width:1px;stroke-linecap:butt;stroke-linejoin:miter;stroke-opacity:1" /><path
       sodipodi:nodetypes="ccccc"
       inkscape:connector-curvature="0"
       id="path4669"
       d="m 36.501166,6.9999984 3.2e-5,10.0167546 -7.000043,2.483249 -7.001223,-2.483249 -0.0012,-10.0167546"
       style="fill:none;fill-rule:evenodd;stroke:#00b66b;stroke-width:1px;stroke-linecap:round;stroke-linejoin:round;stroke-opacity:1" /><path
       style="fill:none;fill-rule:evenodd;stroke:#00b66b;stroke-width:0.99999994px;stroke-linecap:round;stroke-linejoin:round;stroke-opacity:1"
       d="m 29.498816,1.5059194 v 4.988159"
       id="path4677"
       inkscape:connector-curvature="0" /><path
       sodipodi:nodetypes="ccccc"
       inkscape:connector-curvature="0"
       id="path4679"
       d="m 20.506427,17.999997 5.693228,-2.72789 0.424127,-0.203219 m 5.606577,0.04747 6.263188,2.883639"
       style="fill:none;fill-rule:evenodd;stroke:#00b66b;stroke-width:1px;stroke-linecap:round;stroke-linejoin:round;stroke-opacity:1" /></g><g
     id="g4554"><rect
       ry="1.75"
       rx="1.7142857"
       y="3.5"
       x="40.5"
       height="14"
       width="18"
       id="rect4752"
       style="opacity:1;vector-effect:none;fill:none;fill-opacity:1;stroke:#00b66b;stroke-width:1;stroke-linecap:round;stroke-linejoin:round;stroke-miterlimit:4;stroke-dasharray:none;stroke-dashoffset:1;stroke-opacity:1;paint-order:markers fill stroke" /><rect
       y="19.5"
       x="42.466309"
       height="6.4498593e-008"
       width="14.067389"
       id="rect4754"
       style="opacity:1;vector-effect:none;fill:none;fill-opacity:1;stroke:#00b66b;stroke-width:0.99999988;stroke-linecap:round;stroke-linejoin:round;stroke-miterlimit:4;stroke-dasharray:none;stroke-dashoffset:1;stroke-opacity:1;paint-order:markers fill stroke" /><path
       inkscape:connector-curvature="0"
       id="path4756"
       d="m 47.5,17.499997 c 0,2 0,2 0,2"
       style="fill:none;fill-rule:evenodd;stroke:#00b66b;stroke-width:1px;stroke-linecap:butt;stroke-linejoin:miter;stroke-opacity:1" /><path
       inkscape:connector-curvature="0"
       id="path4758"
       d="m 51.5,17.499997 v 2"
       style="fill:none;fill-rule:evenodd;stroke:#00b66b;stroke-width:1px;stroke-linecap:butt;stroke-linejoin:miter;stroke-opacity:1" /><path
       inkscape:connector-curvature="0"
       id="path4760"
       d="M 40.5,14.499999 H 58.999998"
       style="fill:none;fill-rule:evenodd;stroke:#00b66b;stroke-width:1px;stroke-linecap:butt;stroke-linejoin:miter;stroke-opacity:1" /><g
       style="stroke:#00b66b;stroke-width:0.93541342;stroke-opacity:1"
       transform="matrix(1.1428594,0,0,1,36.90344,52.922541)"
       id="g4771"><path
         sodipodi:nodetypes="ccccc"
         inkscape:connector-curvature="0"
         id="path4762"
         d="m 10.982392,-47.405756 3.569184,1.263973 -3.499403,1.230537 -3.4994016,-1.230537 z"
         style="fill:none;fill-rule:evenodd;stroke:#00b66b;stroke-width:0.93541342px;stroke-linecap:round;stroke-linejoin:round;stroke-opacity:1" /><path
         sodipodi:nodetypes="cc"
         inkscape:connector-curvature="0"
         id="path4764"
         d="m 11.052179,-45.411554 v 4.739561"
         style="fill:none;fill-rule:evenodd;stroke:#00b66b;stroke-width:0.93541342px;stroke-linecap:butt;stroke-linejoin:miter;stroke-opacity:1" /><path
         sodipodi:nodetypes="ccccc"
         inkscape:connector-curvature="0"
         id="path4766"
         d="m 14.552126,-46.058542 1.7e-5,4.397106 -3.499386,1.238896 -3.4999768,-1.238896 -5.499e-4,-4.397106"
         style="fill:none;fill-rule:evenodd;stroke:#00b66b;stroke-width:0.93541342px;stroke-linecap:round;stroke-linejoin:round;stroke-opacity:1" /></g></g><g
     transform="translate(-6,29.999999)"
     id="g4558"
     style="stroke:#00b66b;stroke-opacity:1"><path
       style="opacity:1;vector-effect:none;fill:none;fill-opacity:1;stroke:#00b66b;stroke-width:0.99999988;stroke-linecap:round;stroke-linejoin:round;stroke-miterlimit:4;stroke-dasharray:none;stroke-dashoffset:1;stroke-opacity:1;paint-order:markers fill stroke"
       d="m 28.136364,21.5 h 2.727272 C 31.770182,21.5 32.5,22.169 32.5,23 v 1.5 H 28.136364 C 27.229818,24.5 26.5,23.831 26.5,23 c 0,-0.831 0.729818,-1.5 1.636364,-1.5 z"
       id="path4533"
       inkscape:connector-curvature="0"
       sodipodi:nodetypes="ssscsss" /><path
       style="opacity:1;vector-effect:none;fill:none;fill-opacity:1;stroke:#00b66b;stroke-width:1;stroke-linecap:round;stroke-linejoin:round;stroke-miterlimit:4;stroke-dasharray:none;stroke-dashoffset:1;stroke-opacity:1;paint-order:markers fill stroke"
       d="m 32.5,28.5 h 19.849741 c 1.191244,0 2.150258,1.003501 2.150258,2.250001 v 1.697368 c 0,1.184211 -0.04294,1.72512 -0.713535,2.4813 L 46.886283,42.70954 C 46.341001,43.324418 45.657549,43.5 45.446446,43.5 H 34.650259 C 33.459015,43.5 32.5,42.4965 32.5,41.25 V 30.750001 Z"
       id="path4536"
       inkscape:connector-curvature="0"
       sodipodi:nodetypes="csssssssssc" /><circle
       style="opacity:1;vector-effect:none;fill:none;fill-opacity:1;stroke:#00b66b;stroke-width:0.99999994;stroke-linecap:round;stroke-linejoin:round;stroke-miterlimit:4;stroke-dasharray:none;stroke-dashoffset:1;stroke-opacity:1;paint-order:markers fill stroke"
       id="circle4538"
       cx="34.5"
       cy="47.5"
       r="2" /><circle
       r="2"
       cy="47.5"
       cx="44.5"
       id="circle4540"
       style="opacity:1;vector-effect:none;fill:none;fill-opacity:1;stroke:#00b66b;stroke-width:0.99999994;stroke-linecap:round;stroke-linejoin:round;stroke-miterlimit:4;stroke-dasharray:none;stroke-dashoffset:1;stroke-opacity:1;paint-order:markers fill stroke" /><path
       style="fill:none;fill-rule:evenodd;stroke:#00b66b;stroke-width:0.99999988px;stroke-linecap:butt;stroke-linejoin:miter;stroke-opacity:1"
       d="M 36.5,47.4375 H 43"
       id="path4542"
       inkscape:connector-curvature="0"
       sodipodi:nodetypes="cc" /><path
       style="fill:none;fill-rule:evenodd;stroke:#00b66b;stroke-width:1px;stroke-linecap:butt;stroke-linejoin:miter;stroke-opacity:1"
       d="m 34.5,43 v 3"
       id="path4544"
       inkscape:connector-curvature="0"
       sodipodi:nodetypes="cc" /><path
       style="fill:none;fill-rule:evenodd;stroke:#00b66b;stroke-width:1px;stroke-linecap:butt;stroke-linejoin:miter;stroke-opacity:1"
       d="m 44.5,43 v 3"
       id="path4546"
       inkscape:connector-curvature="0"
       sodipodi:nodetypes="cc" /><path
       style="fill:none;fill-rule:evenodd;stroke:#00b66b;stroke-width:0.99999994px;stroke-linecap:butt;stroke-linejoin:miter;stroke-opacity:1"
       d="M 32.5,22.999999 V 41"
       id="path4548"
       inkscape:connector-curvature="0"
       sodipodi:nodetypes="cc" /><path
       style="fill:none;fill-rule:evenodd;stroke:#00b66b;stroke-width:1px;stroke-linecap:round;stroke-linejoin:miter;stroke-opacity:1"
       d="m 36.50005,32.507121 v 6.985758"
       id="path4550"
       inkscape:connector-curvature="0"
       sodipodi:nodetypes="cc" /><path
       inkscape:connector-curvature="0"
       id="path4552"
       d="m 40.5,32.507121 v 6.985758"
       style="fill:none;fill-rule:evenodd;stroke:#00b66b;stroke-width:1px;stroke-linecap:round;stroke-linejoin:miter;stroke-opacity:1"
       sodipodi:nodetypes="cc" /><path
       style="fill:none;fill-rule:evenodd;stroke:#00b66b;stroke-width:1px;stroke-linecap:round;stroke-linejoin:miter;stroke-opacity:1"
       d="m 44.49995,32.507121 v 6.985758"
       id="path4554"
       inkscape:connector-curvature="0"
       sodipodi:nodetypes="cc" /><path
       inkscape:connector-curvature="0"
       id="path4556"
       d="m 48.50005,32.479009 v 3.041982"
       style="fill:none;fill-rule:evenodd;stroke:#00b66b;stroke-width:0.99999994px;stroke-linecap:round;stroke-linejoin:miter;stroke-opacity:1"
       sodipodi:nodetypes="cc" /></g><path
     inkscape:connector-curvature="0"
     id="path4560"
     d="M 57.040364,54.5 C 53.358467,54.5 50.5,57.526752 50.5,61.260445 50.5,69.725564 61.448313,75.555747 63.499999,77.500018 65.551687,75.555747 76.5,69.725564 76.5,61.260445 76.5,57.526752 73.641533,54.5 69.959635,54.5 c -3.121356,0 -5.734128,2.178025 -6.459636,5.115221 C 62.774491,56.678025 60.16172,54.5 57.040364,54.5 Z"
     style="opacity:1;vector-effect:none;fill:none;fill-opacity:1;stroke:#00b66b;stroke-width:1;stroke-linecap:round;stroke-linejoin:round;stroke-miterlimit:4;stroke-dasharray:none;stroke-dashoffset:1;stroke-opacity:1;paint-order:markers fill stroke" /><path
     inkscape:connector-curvature="0"
     id="path4562"
     d="M 6.7059,62.499999 A 6.2058975,6.1960959 0 0 0 0.5,68.696095 a 6.2058975,6.1960959 0 0 0 6.2059,6.196096 6.2058975,6.1960959 0 0 0 4.49749,-1.938827 l 4.36607,4.359177 c 0.2559,0.255499 0.66784,0.255499 0.92374,0 0.2559,-0.255499 0.2559,-0.666782 0,-0.922281 L 12.00337,71.907517 A 6.2058975,6.1960959 0 0 0 12.91179,68.696095 6.2058975,6.1960959 0 0 0 6.7059,62.499999 Z"
     style="opacity:1;vector-effect:none;fill:none;fill-opacity:1;stroke:#ffffff;stroke-width:1;stroke-linecap:round;stroke-linejoin:round;stroke-miterlimit:4;stroke-dasharray:none;stroke-dashoffset:1;stroke-opacity:1;paint-order:markers fill stroke" /><path
     d="m 80,53.999999 h 26 v 1 H 80 Z m 0,10 h 26 v 1 H 80 Z m 0,10 h 26 v 1 H 80 Z"
     class="cls-1"
     data-name="Прямоугольник 506 копия 2"
     id="Прямоугольник_506_копия_2"
     inkscape:connector-curvature="0"
     style="fill:#848484;fill-rule:evenodd;stroke-width:1"
     sodipodi:nodetypes="ccccccccccccccc" /><path
     style="opacity:1;vector-effect:none;fill:none;fill-opacity:1;stroke:#848484;stroke-width:0.99999982;stroke-linecap:round;stroke-linejoin:round;stroke-miterlimit:4;stroke-dasharray:none;stroke-dashoffset:1;stroke-opacity:1;paint-order:markers fill stroke"
     d="m 90.854324,24.468623 a 10.354321,10.338567 0 0 0 -10.35432,10.338568 10.354321,10.338567 0 0 0 10.35432,10.338567 10.354321,10.338567 0 0 0 7.503905,-3.235051 l 7.284631,7.273556 c 0.42698,0.426315 1.11427,0.426315 1.54124,0 0.42696,-0.426317 0.42696,-1.112567 0,-1.538883 l -7.49113,-7.479734 a 10.354321,10.338567 0 0 0 1.51567,-5.358455 10.354321,10.338567 0 0 0 -10.354316,-10.338568 z"
     id="path4535-1"
     inkscape:connector-curvature="0" /><path
     style="fill:#848484;fill-rule:evenodd;stroke-width:1"
     d="M 128.29629,54.999995 119.5,63.796293 110.70371,54.999995 110,55.703699 118.79629,64.499997 110,73.296295 110.70371,73.999999 119.5,65.203701 128.29629,73.999999 129,73.296295 120.20371,64.499997 129,55.703699 Z"
     id="Прямоугольник_506_копия_2-8"
     inkscape:connector-curvature="0" /><path
     inkscape:connector-curvature="0"
     id="path4537"
     d="M 148.29629,55 139.5,63.796296 130.70371,55 130,55.703704 138.79629,64.5 130,73.296296 130.70371,74 139.5,65.203704 148.29629,74 149,73.296296 140.2037,64.5 149,55.703704 Z"
     style="fill:#00b66b;fill-opacity:1;fill-rule:evenodd;stroke-width:0.99999994" /><path
     style="fill:none;fill-opacity:1;stroke:#00b66b;stroke-width:0.97688419;stroke-linecap:round;stroke-linejoin:round;stroke-miterlimit:4;stroke-dasharray:none;stroke-dashoffset:0;stroke-opacity:1;paint-order:normal"
     d="m 76.513283,13.745713 c -1.475839,2.564102 -4.39972,4.117209 -7.513284,3.698983 C 64.888407,16.89241 62.003018,13.11159 62.555304,8.999998 M 63.727369,5.86436 c 1.5384,-2.329685 4.32024,-3.705635 7.272632,-3.309058 3.857287,0.518126 6.635363,3.877763 6.508244,7.686264"
     id="path4557"
     inkscape:connector-curvature="0"
     sodipodi:nodetypes="csccsc" /><path
     style="fill:none;stroke:#00b66b;stroke-width:0.99832642px;stroke-linecap:round;stroke-linejoin:round;stroke-opacity:1"
     d="m 60.504205,10.495795 1.996653,-1.996652 1.996652,1.996652"
     id="path4559"
     inkscape:connector-curvature="0" /><path
     inkscape:connector-curvature="0"
     id="path4561"
     d="m 75.504205,8.504205 1.996653,1.996652 1.996652,-1.996652"
     style="fill:none;stroke:#00b66b;stroke-width:0.99832642px;stroke-linecap:round;stroke-linejoin:round;stroke-opacity:1" /><path
     style="fill:#00b66b;fill-opacity:1;fill-rule:evenodd;stroke-width:1.0492276"
     d="M 80.738352,20 85.585785,15.152561 90.433219,20 91.17157,19.261654 86.324138,14.414215 91.171571,9.566776 90.433219,8.828431 85.585785,13.67587 80.738349,8.828431 80.000001,9.566776 84.847444,14.414215 80,19.261654 Z"
     id="path4547"
     inkscape:connector-curvature="0"
     sodipodi:nodetypes="ccccccccccccc" /><path
     inkscape:connector-curvature="0"
     id="path4545"
     d="M 96.018631,10 C 94.319294,10 93,11.315979 93,12.939321 93,16.619806 98.053067,19.154665 99.000002,20 99.946929,19.154665 105,16.619806 105,12.939321 105,11.315979 103.6807,10 101.98138,10 100.54074,10 99.334853,10.946967 99.000002,12.224008 98.66515,10.946967 97.459256,10 96.018631,10 Z"
     style="opacity:1;vector-effect:none;fill:#848484;fill-opacity:1;stroke:none;stroke-width:0.41567254;stroke-linecap:round;stroke-linejoin:round;stroke-miterlimit:4;stroke-dasharray:none;stroke-dashoffset:1;stroke-opacity:1;paint-order:markers fill stroke" /><path
     style="opacity:1;vector-effect:none;fill:#00b66b;fill-opacity:1;stroke:none;stroke-width:0.41567254;stroke-linecap:round;stroke-linejoin:round;stroke-miterlimit:4;stroke-dasharray:none;stroke-dashoffset:1;stroke-opacity:1;paint-order:markers fill stroke"
     d="M 109.01863,10 C 107.31929,10 106,11.315979 106,12.939321 c 0,3.680485 5.05307,6.215344 6,7.060679 0.94693,-0.845335 6,-3.380194 6,-7.060679 C 118,11.315979 116.6807,10 114.98138,10 113.54074,10 112.33485,10.946967 112,12.224008 111.66515,10.946967 110.45926,10 109.01863,10 Z"
     id="path4549"
     inkscape:connector-curvature="0" /><path
     style="fill:#00b66b;fill-opacity:1;stroke:none;stroke-width:2.04939008;stroke-linecap:round;stroke-linejoin:round;stroke-miterlimit:4;stroke-dasharray:none;stroke-dashoffset:0;stroke-opacity:1;paint-order:normal"
     d="m 120,6 v 14 h 11 v -9 h -4 -1 V 10 6 Z m 7,0 v 4 h 3.85156 z"
     id="rect4546"
     inkscape:connector-curvature="0"
     sodipodi:nodetypes="ccccccccccccc" /><g
     aria-label=""
     style="font-style:normal;font-weight:normal;font-size:10.58333302px;line-height:1.25;font-family:sans-serif;letter-spacing:0px;word-spacing:0px;fill:none;fill-opacity:1;stroke:#848484;stroke-width:0.34646672;stroke-linecap:round;stroke-linejoin:round;stroke-miterlimit:4;stroke-dasharray:none;stroke-opacity:1"
     id="text4495"
     transform="matrix(3.0016214,0,0,3.0016214,224.03085,-363.23017)"><path
       d="m -29.501041,135.7476 c 0,-0.0413 0,-0.0827 -0.01772,-0.12402 -0.04134,-0.12402 -0.330729,-0.25395 -0.448846,-0.31301 -0.336635,-0.18899 -0.679176,-0.37207 -1.009905,-0.56697 -0.153553,-0.0945 -0.342541,-0.27167 -0.525624,-0.27167 -0.360258,0 -0.885881,1.06897 -1.204799,1.06897 -0.159458,0 -0.366164,-0.14765 -0.507905,-0.23033 -1.07487,-0.5965 -1.81901,-1.34064 -2.415504,-2.41551 -0.08268,-0.14174 -0.230329,-0.34844 -0.230329,-0.5079 0,-0.31892 1.068964,-0.84454 1.068964,-1.2048 0,-0.18308 -0.177177,-0.37207 -0.271671,-0.52562 -0.194894,-0.33073 -0.377976,-0.67327 -0.566964,-1.00991 -0.05906,-0.11812 -0.188988,-0.4075 -0.313012,-0.44885 -0.04134,-0.0177 -0.08268,-0.0177 -0.124023,-0.0177 -0.212612,0 -0.626023,0.0945 -0.820917,0.18308 -0.289388,0.12402 -0.478376,0.45475 -0.626023,0.72052 -0.188988,0.34844 -0.3012,0.7028 -0.3012,1.09849 0,0.54925 0.224423,1.04534 0.407506,1.54734 0.129929,0.36026 0.289388,0.7087 0.490188,1.03353 0.620117,1.004 1.830822,2.2147 2.834821,2.83482 0.324823,0.2008 0.67327,0.36026 1.033529,0.49019 0.501999,0.18308 0.998093,0.4075 1.547339,0.4075 0.395694,0 0.750047,-0.11221 1.098494,-0.3012 0.265764,-0.14764 0.596493,-0.33663 0.720517,-0.62602 0.08859,-0.19489 0.183082,-0.60831 0.183082,-0.82092 z"
       style="fill:none;stroke:#848484;stroke-width:0.34646672;stroke-linecap:round;stroke-linejoin:round;stroke-miterlimit:4;stroke-dasharray:none;stroke-opacity:1"
       id="path4497"
       inkscape:connector-curvature="0" /></g><path
     style="fill:#ffffff;fill-opacity:1;fill-rule:evenodd;stroke-width:0.99999994"
     d="M 168.29629,55 159.5,63.796296 150.70371,55 150,55.703704 158.79629,64.5 150,73.296296 150.70371,74 159.5,65.203704 168.29629,74 169,73.296296 160.2037,64.5 169,55.703704 Z"
     id="path4551"
     inkscape:connector-curvature="0" /></svg>