<?xml version="1.0" encoding="UTF-8" standalone="no"?>
<!-- Generator: Adobe Illustrator 18.0.0, SVG Export Plug-In . SVG Version: 6.00 Build 0)  -->

<svg
   xmlns:dc="http://purl.org/dc/elements/1.1/"
   xmlns:cc="http://creativecommons.org/ns#"
   xmlns:rdf="http://www.w3.org/1999/02/22-rdf-syntax-ns#"
   xmlns:svg="http://www.w3.org/2000/svg"
   xmlns="http://www.w3.org/2000/svg"
   xmlns:sodipodi="http://sodipodi.sourceforge.net/DTD/sodipodi-0.dtd"
   xmlns:inkscape="http://www.inkscape.org/namespaces/inkscape"
   version="1.1"
   id="Capa_1"
   x="0px"
   y="0px"
   viewBox="0 0 180 60"
   xml:space="preserve"
   inkscape:version="0.92.1 r15371"
   sodipodi:docname="soc_media.svg"
   width="180"
   height="60"><metadata
     id="metadata43"><rdf:RDF><cc:Work
         rdf:about=""><dc:format>image/svg+xml</dc:format><dc:type
           rdf:resource="http://purl.org/dc/dcmitype/StillImage" /><dc:title /></cc:Work></rdf:RDF></metadata><defs
     id="defs41" /><sodipodi:namedview
     pagecolor="#ffffff"
     bordercolor="#666666"
     borderopacity="1"
     objecttolerance="10"
     gridtolerance="10"
     guidetolerance="10"
     inkscape:pageopacity="0"
     inkscape:pageshadow="2"
     inkscape:window-width="1920"
     inkscape:window-height="1018"
     id="namedview39"
     showgrid="false"
     fit-margin-top="0"
     fit-margin-left="0"
     fit-margin-right="0"
     fit-margin-bottom="0"
     inkscape:zoom="7.9999999"
     inkscape:cx="75.967141"
     inkscape:cy="26.691172"
     inkscape:window-x="-8"
     inkscape:window-y="-8"
     inkscape:window-maximized="1"
     inkscape:current-layer="Capa_1" /><g
     id="g3"
     transform="matrix(0.26738921,0,0,0.26738921,0,30)"><circle
       style="fill:#3a3f49;fill-opacity:1"
       cx="56.098"
       cy="56.098"
       r="56.098"
       id="circle5" /><path
       style="fill:#ffffff"
       d="M 70.201,58.294 H 60.191 V 94.966 H 45.025 V 58.294 H 37.812 V 45.406 h 7.213 v -8.34 c 0,-5.964 2.833,-15.303 15.301,-15.303 L 71.56,21.81 v 12.51 h -8.151 c -1.337,0 -3.217,0.668 -3.217,3.513 v 7.585 h 11.334 z"
       id="path7"
       inkscape:connector-curvature="0" /></g><g
     id="g9"
     transform="translate(0,-52.195999)" /><g
     id="g11"
     transform="translate(0,-52.195999)" /><g
     id="g13"
     transform="translate(0,-52.195999)" /><g
     id="g15"
     transform="translate(0,-52.195999)" /><g
     id="g17"
     transform="translate(0,-52.195999)" /><g
     id="g19"
     transform="translate(0,-52.195999)" /><g
     id="g21"
     transform="translate(0,-52.195999)" /><g
     id="g23"
     transform="translate(0,-52.195999)" /><g
     id="g25"
     transform="translate(0,-52.195999)" /><g
     id="g27"
     transform="translate(0,-52.195999)" /><g
     id="g29"
     transform="translate(0,-52.195999)" /><g
     id="g31"
     transform="translate(0,-52.195999)" /><g
     id="g33"
     transform="translate(0,-52.195999)" /><g
     id="g35"
     transform="translate(0,-52.195999)" /><g
     id="g37"
     transform="translate(0,-52.195999)" /><g
     id="g4216"
     transform="matrix(0.26738921,0,0,0.26738921,29.999733,30)"><g
       id="g4172"><circle
         id="circle4174"
         r="56.098"
         cy="56.098"
         cx="56.098999"
         style="fill:#3a3f49;fill-opacity:1" /><g
         id="g4176"><path
           id="path4178"
           d="m 90.461,40.316 c -2.404,1.066 -4.99,1.787 -7.702,2.109 2.769,-1.659 4.894,-4.284 5.897,-7.417 -2.591,1.537 -5.462,2.652 -8.515,3.253 -2.446,-2.605 -5.931,-4.233 -9.79,-4.233 -7.404,0 -13.409,6.005 -13.409,13.409 0,1.051 0.119,2.074 0.349,3.056 -11.144,-0.559 -21.025,-5.897 -27.639,-14.012 -1.154,1.98 -1.816,4.285 -1.816,6.742 0,4.651 2.369,8.757 5.965,11.161 -2.197,-0.069 -4.266,-0.672 -6.073,-1.679 -0.001,0.057 -0.001,0.114 -0.001,0.17 0,6.497 4.624,11.916 10.757,13.147 -1.124,0.308 -2.311,0.471 -3.532,0.471 -0.866,0 -1.705,-0.083 -2.523,-0.239 1.706,5.326 6.657,9.203 12.526,9.312 -4.59,3.597 -10.371,5.74 -16.655,5.74 -1.08,0 -2.15,-0.063 -3.197,-0.188 5.931,3.806 12.981,6.025 20.553,6.025 24.664,0 38.152,-20.432 38.152,-38.153 0,-0.581 -0.013,-1.16 -0.039,-1.734 2.622,-1.89 4.895,-4.251 6.692,-6.94 z"
           style="fill:#f1f2f2"
           inkscape:connector-curvature="0" /></g></g><g
       id="g4180" /><g
       id="g4182" /><g
       id="g4184" /><g
       id="g4186" /><g
       id="g4188" /><g
       id="g4190" /><g
       id="g4192" /><g
       id="g4194" /><g
       id="g4196" /><g
       id="g4198" /><g
       id="g4200" /><g
       id="g4202" /><g
       id="g4204" /><g
       id="g4206" /><g
       id="g4208" /></g><path
     style="fill:#3a3f49;fill-opacity:1;stroke-width:0.33423203"
     d="m 75,30 c -8.28394,0 -15,6.716059 -15,15 0,8.283941 6.71606,15 15,15 8.28394,0 15,-6.716059 15,-15 0,-8.283941 -6.71606,-15 -15,-15 z m -4.4707,6.017578 h 8.9414 c 2.51042,0 4.55215,2.042066 4.55215,4.552149 v 8.941406 c 0,2.510416 -2.04173,4.552148 -4.55215,4.552148 h -8.9414 c -2.51009,0 -4.55215,-2.041732 -4.55215,-4.552148 v -8.941406 c 0,-2.510083 2.04206,-4.552149 4.55215,-4.552149 z m 0,1.964063 c -1.42717,0 -2.58809,1.160915 -2.58809,2.588086 v 8.941406 c 0,1.427171 1.16092,2.588672 2.58809,2.588672 h 8.9414 c 1.42717,0 2.58867,-1.161167 2.58867,-2.588672 v -8.941406 c 0,-1.427171 -1.16116,-2.588086 -2.58867,-2.588086 z m 9.26777,1.173046 c 0.6063,0 1.0998,0.493508 1.0998,1.099805 0,0.606297 -0.4935,1.099219 -1.0998,1.099219 -0.60663,0 -1.0998,-0.492922 -1.0998,-1.099219 0,-0.606297 0.49317,-1.099805 1.0998,-1.099805 z M 75,40.392773 c 2.56289,0 4.64766,2.0851 4.64766,4.647657 0,2.562557 -2.0851,4.647656 -4.64766,4.647656 -2.56256,0 -4.64766,-2.084765 -4.64766,-4.647656 0,-2.562557 2.0851,-4.647657 4.64766,-4.647657 z m 0,1.964063 c -1.47931,0 -2.68359,1.203696 -2.68359,2.683008 0,1.479979 1.20428,2.684765 2.68359,2.684765 1.47998,0 2.68359,-1.204786 2.68359,-2.684765 0,-1.478977 -1.20395,-2.683008 -2.68359,-2.683008 z"
     id="path4240"
     inkscape:connector-curvature="0" /><g
     style="fill:#d253a5;fill-opacity:1"
     id="g4246"
     transform="matrix(1.1141068,0,0,1.1141068,220,-39.999998)" /><g
     style="fill:#d253a5;fill-opacity:1"
     id="g4248"
     transform="matrix(1.1141068,0,0,1.1141068,220,-39.999998)" /><g
     style="fill:#d253a5;fill-opacity:1"
     id="g4250"
     transform="matrix(1.1141068,0,0,1.1141068,220,-39.999998)" /><g
     style="fill:#d253a5;fill-opacity:1"
     id="g4252"
     transform="matrix(1.1141068,0,0,1.1141068,220,-39.999998)" /><g
     style="fill:#d253a5;fill-opacity:1"
     id="g4254"
     transform="matrix(1.1141068,0,0,1.1141068,220,-39.999998)" /><g
     style="fill:#d253a5;fill-opacity:1"
     id="g4256"
     transform="matrix(1.1141068,0,0,1.1141068,220,-39.999998)" /><g
     style="fill:#d253a5;fill-opacity:1"
     id="g4258"
     transform="matrix(1.1141068,0,0,1.1141068,220,-39.999998)" /><g
     style="fill:#d253a5;fill-opacity:1"
     id="g4260"
     transform="matrix(1.1141068,0,0,1.1141068,220,-39.999998)" /><g
     style="fill:#d253a5;fill-opacity:1"
     id="g4262"
     transform="matrix(1.1141068,0,0,1.1141068,220,-39.999998)" /><g
     style="fill:#d253a5;fill-opacity:1"
     id="g4264"
     transform="matrix(1.1141068,0,0,1.1141068,220,-39.999998)" /><g
     style="fill:#d253a5;fill-opacity:1"
     id="g4266"
     transform="matrix(1.1141068,0,0,1.1141068,220,-39.999998)" /><g
     style="fill:#d253a5;fill-opacity:1"
     id="g4268"
     transform="matrix(1.1141068,0,0,1.1141068,220,-39.999998)" /><g
     style="fill:#d253a5;fill-opacity:1"
     id="g4270"
     transform="matrix(1.1141068,0,0,1.1141068,220,-39.999998)" /><g
     style="fill:#d253a5;fill-opacity:1"
     id="g4272"
     transform="matrix(1.1141068,0,0,1.1141068,220,-39.999998)" /><g
     style="fill:#d253a5;fill-opacity:1"
     id="g4274"
     transform="matrix(1.1141068,0,0,1.1141068,220,-39.999998)" /><g
     id="g4306"
     style="stroke:none"
     transform="matrix(0.26738921,0,0,0.26738921,90,30.000268)"><circle
       r="56.098"
       cy="56.097"
       cx="56.098"
       style="fill:#3a3f49;fill-opacity:1;stroke:none"
       id="XMLID_30_" /></g><path
     inkscape:connector-curvature="0"
     style="fill:#ffffff;stroke:none;stroke-width:0.26738921"
     d="m 95.222379,45.671415 c -0.05321,2.58084 1.724393,5.043762 4.169667,5.847 2.303294,0.773824 5.135214,0.194926 6.667884,-1.777604 1.11902,-1.382135 1.37331,-3.224714 1.25218,-4.946165 -1.97253,-0.01765 -3.94506,-0.01177 -5.91464,-0.0088 -0.003,0.702699 0,1.402724 0.003,2.105422 1.18105,0.03262 2.36238,0.01765 3.54344,0.04145 -0.29814,1.021694 -0.97731,1.97253 -2.00809,2.341527 -1.99018,0.877037 -4.529578,-0.268726 -5.155804,-2.356501 -0.755909,-1.999269 0.481568,-4.411922 2.524694,-4.993494 1.26689,-0.445737 2.57201,0.05615 3.65601,0.714732 0.54922,-0.513922 1.06314,-1.06314 1.56797,-1.61824 -1.2316,-1.030518 -2.81427,-1.662358 -4.44134,-1.523583 -3.192356,0.03797 -5.986039,2.985133 -5.864911,6.174284 z"
     id="path4311" /><path
     inkscape:connector-curvature="0"
     style="fill:#ffffff;stroke:none;stroke-width:0.26738921"
     d="m 111.15102,43.013566 c -0.006,0.587722 -0.012,1.178384 -0.015,1.765838 -0.59067,0.0059 -1.17812,0.0088 -1.76584,0.01177 0,0.587721 0,1.172234 0,1.759955 0.58772,0.0029 1.17838,0.0059 1.76584,0.01203 0.006,0.587721 0.006,1.175175 0.0118,1.765838 0.58478,0 1.1725,-0.0029 1.75996,0 0.003,-0.590663 0.006,-1.178117 0.012,-1.768779 0.58746,-0.0029 1.17812,-0.0059 1.76584,-0.0088 0,-0.587722 0,-1.172235 0,-1.759956 -0.58745,-0.0029 -1.17812,-0.0059 -1.76584,-0.01177 -0.003,-0.587722 -0.009,-1.178384 -0.012,-1.765839 -0.58746,-2.67e-4 -1.17224,-2.67e-4 -1.75675,-2.67e-4 z"
     id="path4313" /><g
     style="stroke:none"
     id="g4321"
     transform="matrix(0.26738921,0,0,0.26738921,90,30.000268)" /><g
     style="stroke:none"
     id="g4323"
     transform="matrix(0.26738921,0,0,0.26738921,90,30.000268)" /><g
     style="stroke:none"
     id="g4325"
     transform="matrix(0.26738921,0,0,0.26738921,90,30.000268)" /><g
     style="stroke:none"
     id="g4327"
     transform="matrix(0.26738921,0,0,0.26738921,90,30.000268)" /><g
     style="stroke:none"
     id="g4329"
     transform="matrix(0.26738921,0,0,0.26738921,90,30.000268)" /><g
     style="stroke:none"
     id="g4331"
     transform="matrix(0.26738921,0,0,0.26738921,90,30.000268)" /><g
     style="stroke:none"
     id="g4333"
     transform="matrix(0.26738921,0,0,0.26738921,90,30.000268)" /><g
     style="stroke:none"
     id="g4335"
     transform="matrix(0.26738921,0,0,0.26738921,90,30.000268)" /><g
     style="stroke:none"
     id="g4337"
     transform="matrix(0.26738921,0,0,0.26738921,90,30.000268)" /><g
     style="stroke:none"
     id="g4339"
     transform="matrix(0.26738921,0,0,0.26738921,90,30.000268)" /><g
     style="stroke:none"
     id="g4341"
     transform="matrix(0.26738921,0,0,0.26738921,90,30.000268)" /><g
     style="stroke:none"
     id="g4343"
     transform="matrix(0.26738921,0,0,0.26738921,90,30.000268)" /><g
     style="stroke:none"
     id="g4345"
     transform="matrix(0.26738921,0,0,0.26738921,90,30.000268)" /><g
     style="stroke:none"
     id="g4347"
     transform="matrix(0.26738921,0,0,0.26738921,90,30.000268)" /><g
     style="stroke:none"
     id="g4349"
     transform="matrix(0.26738921,0,0,0.26738921,90,30.000268)" /><g
     id="g4427"
     transform="matrix(0.26738921,0,0,0.26738921,120,30)"><g
       id="g4384"><g
         id="g4386"><circle
           r="56.098"
           cy="56.098"
           cx="56.098"
           style="fill:#3a3f49;fill-opacity:1"
           id="XMLID_11_" /></g><path
         id="path4389"
         d="m 53.979,80.702 h 4.403 c 0,0 1.33,-0.146 2.009,-0.878 0.625,-0.672 0.605,-1.934 0.605,-1.934 0,0 -0.086,-5.908 2.656,-6.778 2.703,-0.857 6.174,5.71 9.853,8.235 2.782,1.911 4.896,1.492 4.896,1.492 l 9.837,-0.137 c 0,0 5.146,-0.317 2.706,-4.363 -0.2,-0.331 -1.421,-2.993 -7.314,-8.463 -6.168,-5.725 -5.342,-4.799 2.088,-14.702 4.525,-6.031 6.334,-9.713 5.769,-11.29 -0.539,-1.502 -3.867,-1.105 -3.867,-1.105 l -11.076,0.069 c 0,0 -0.821,-0.112 -1.43,0.252 -0.595,0.357 -0.978,1.189 -0.978,1.189 0,0 -1.753,4.667 -4.091,8.636 -4.932,8.375 -6.904,8.817 -7.71,8.297 -1.875,-1.212 -1.407,-4.869 -1.407,-7.467 0,-8.116 1.231,-11.5 -2.397,-12.376 -1.204,-0.291 -2.09,-0.483 -5.169,-0.514 -3.952,-0.041 -7.297,0.012 -9.191,0.94 -1.26,0.617 -2.232,1.992 -1.64,2.071 0.732,0.098 2.39,0.447 3.269,1.644 1.135,1.544 1.095,5.012 1.095,5.012 0,0 0.652,9.554 -1.523,10.741 -1.493,0.814 -3.541,-0.848 -7.938,-8.446 -2.253,-3.892 -3.954,-8.194 -3.954,-8.194 0,0 -0.328,-0.804 -0.913,-1.234 -0.71,-0.521 -1.702,-0.687 -1.702,-0.687 L 20.34,40.781 c 0,0 -1.58,0.044 -2.16,0.731 -0.516,0.611 -0.041,1.875 -0.041,1.875 0,0 8.24,19.278 17.57,28.993 8.555,8.907 18.27,8.322 18.27,8.322 z"
         style="clip-rule:evenodd;fill:#ffffff;fill-rule:evenodd"
         inkscape:connector-curvature="0" /></g><g
       id="g4391" /><g
       id="g4393" /><g
       id="g4395" /><g
       id="g4397" /><g
       id="g4399" /><g
       id="g4401" /><g
       id="g4403" /><g
       id="g4405" /><g
       id="g4407" /><g
       id="g4409" /><g
       id="g4411" /><g
       id="g4413" /><g
       id="g4415" /><g
       id="g4417" /><g
       id="g4419" /></g><g
     id="g4648"
     transform="matrix(0.05859375,0,0,0.05859375,150,30)"
     style="stroke-width:5.11999989"><circle
       id="circle4584"
       r="256"
       cy="256"
       cx="256"
       style="fill:#3a3f49;fill-opacity:1;stroke-width:5.11999989" /><path
       id="path4588"
       d="M 341.649,152.333 H 170.351 c -33.608,0 -60.852,27.245 -60.852,60.852 v 85.632 c 0,33.608 27.245,60.852 60.852,60.852 h 171.298 c 33.608,0 60.852,-27.245 60.852,-60.852 v -85.632 c 0,-33.607 -27.245,-60.852 -60.852,-60.852 z m -41.155,107.834 -80.12,38.212 c -2.136,1.019 -4.603,-0.536 -4.603,-2.901 v -78.814 c 0,-2.4 2.532,-3.955 4.67,-2.87 l 80.12,40.601 c 2.386,1.207 2.343,4.624 -0.067,5.772 z"
       style="fill:#ffffff;stroke-width:5.11999989"
       inkscape:connector-curvature="0" /><g
       id="g4592"
       style="stroke-width:5.11999989" /><g
       id="g4594"
       style="stroke-width:5.11999989" /><g
       id="g4596"
       style="stroke-width:5.11999989" /><g
       id="g4598"
       style="stroke-width:5.11999989" /><g
       id="g4600"
       style="stroke-width:5.11999989" /><g
       id="g4602"
       style="stroke-width:5.11999989" /><g
       id="g4604"
       style="stroke-width:5.11999989" /><g
       id="g4606"
       style="stroke-width:5.11999989" /><g
       id="g4608"
       style="stroke-width:5.11999989" /><g
       id="g4610"
       style="stroke-width:5.11999989" /><g
       id="g4612"
       style="stroke-width:5.11999989" /><g
       id="g4614"
       style="stroke-width:5.11999989" /><g
       id="g4616"
       style="stroke-width:5.11999989" /><g
       id="g4618"
       style="stroke-width:5.11999989" /><g
       id="g4620"
       style="stroke-width:5.11999989" /></g><path
     style="fill:#ffffff;fill-opacity:1;stroke:none;stroke-width:0.30000001;stroke-linecap:round;stroke-linejoin:round;stroke-miterlimit:4;stroke-dasharray:none;stroke-dashoffset:0;stroke-opacity:1;paint-order:normal"
     d="m 70.5293,36.017578 c -2.51009,0 -4.55215,2.042066 -4.55215,4.552149 v 8.941406 c 0,2.510416 2.04206,4.552148 4.55215,4.552148 h 8.9414 c 2.51042,0 4.55215,-2.041732 4.55215,-4.552148 v -8.941406 c 0,-2.510083 -2.04173,-4.552149 -4.55215,-4.552149 z m 0,1.964063 h 8.9414 c 1.42751,0 2.58867,1.160915 2.58867,2.588086 v 8.941406 c 0,1.427505 -1.1615,2.588672 -2.58867,2.588672 h -8.9414 c -1.42717,0 -2.58809,-1.161502 -2.58809,-2.588672 v -8.941406 c 0,-1.427171 1.16092,-2.588086 2.58809,-2.588086 z m 9.26777,1.173046 c -0.60663,0 -1.0998,0.493508 -1.0998,1.099805 0,0.606297 0.49317,1.099219 1.0998,1.099219 0.6063,0 1.0998,-0.492922 1.0998,-1.099219 0,-0.606297 -0.4935,-1.099805 -1.0998,-1.099805 z M 75,40.392773 c -2.56256,0 -4.64766,2.0851 -4.64766,4.647657 0,2.562891 2.0851,4.647656 4.64766,4.647656 2.56256,0 4.64766,-2.085099 4.64766,-4.647656 0,-2.562557 -2.08477,-4.647657 -4.64766,-4.647657 z m 0,1.964063 c 1.47964,0 2.68359,1.204031 2.68359,2.683008 0,1.479979 -1.20361,2.684765 -2.68359,2.684765 -1.47931,0 -2.68359,-1.204786 -2.68359,-2.684765 0,-1.479312 1.20428,-2.683008 2.68359,-2.683008 z"
     id="path4613"
     inkscape:connector-curvature="0"
     sodipodi:nodetypes="sssssssssssssssssssssssssssssssss" /><g
     transform="scale(0.26738921)"
     id="g4779"
     style="fill:#0abe74;fill-opacity:1"><circle
       id="circle4775"
       r="56.098"
       cy="56.098"
       cx="56.098"
       style="fill:#0abe74;fill-opacity:1" /><path
       inkscape:connector-curvature="0"
       id="path4777"
       d="M 70.201,58.294 H 60.191 V 94.966 H 45.025 V 58.294 H 37.812 V 45.406 h 7.213 v -8.34 c 0,-5.964 2.833,-15.303 15.301,-15.303 L 71.56,21.81 v 12.51 h -8.151 c -1.337,0 -3.217,0.668 -3.217,3.513 v 7.585 h 11.334 z"
       style="fill:#ffffff;fill-opacity:1" /></g><g
     transform="matrix(0.26738921,0,0,0.26738921,29.999733,0)"
     id="g4819"><g
       id="g4787"><circle
         style="fill:#0abe74;fill-opacity:1"
         cx="56.098999"
         cy="56.098"
         r="56.098"
         id="circle4781" /><g
         id="g4785"><path
           inkscape:connector-curvature="0"
           style="fill:#f1f2f2"
           d="m 90.461,40.316 c -2.404,1.066 -4.99,1.787 -7.702,2.109 2.769,-1.659 4.894,-4.284 5.897,-7.417 -2.591,1.537 -5.462,2.652 -8.515,3.253 -2.446,-2.605 -5.931,-4.233 -9.79,-4.233 -7.404,0 -13.409,6.005 -13.409,13.409 0,1.051 0.119,2.074 0.349,3.056 -11.144,-0.559 -21.025,-5.897 -27.639,-14.012 -1.154,1.98 -1.816,4.285 -1.816,6.742 0,4.651 2.369,8.757 5.965,11.161 -2.197,-0.069 -4.266,-0.672 -6.073,-1.679 -0.001,0.057 -0.001,0.114 -0.001,0.17 0,6.497 4.624,11.916 10.757,13.147 -1.124,0.308 -2.311,0.471 -3.532,0.471 -0.866,0 -1.705,-0.083 -2.523,-0.239 1.706,5.326 6.657,9.203 12.526,9.312 -4.59,3.597 -10.371,5.74 -16.655,5.74 -1.08,0 -2.15,-0.063 -3.197,-0.188 5.931,3.806 12.981,6.025 20.553,6.025 24.664,0 38.152,-20.432 38.152,-38.153 0,-0.581 -0.013,-1.16 -0.039,-1.734 2.622,-1.89 4.895,-4.251 6.692,-6.94 z"
           id="path4783" /></g></g><g
       id="g4789" /><g
       id="g4791" /><g
       id="g4793" /><g
       id="g4795" /><g
       id="g4797" /><g
       id="g4799" /><g
       id="g4801" /><g
       id="g4803" /><g
       id="g4805" /><g
       id="g4807" /><g
       id="g4809" /><g
       id="g4811" /><g
       id="g4813" /><g
       id="g4815" /><g
       id="g4817" /></g><path
     inkscape:connector-curvature="0"
     id="path4821"
     d="M 75,0 C 66.71606,0 60,6.716059 60,15 60,23.283941 66.71606,30 75,30 83.28394,30 90,23.283941 90,15 90,6.716059 83.28394,0 75,0 Z m -4.4707,6.017578 h 8.9414 c 2.51042,0 4.55215,2.042066 4.55215,4.552149 v 8.941406 c 0,2.510416 -2.04173,4.552148 -4.55215,4.552148 h -8.9414 c -2.51009,0 -4.55215,-2.041732 -4.55215,-4.552148 v -8.941406 c 0,-2.510083 2.04206,-4.552149 4.55215,-4.552149 z m 0,1.964063 c -1.42717,0 -2.58809,1.160915 -2.58809,2.588086 v 8.941406 c 0,1.427171 1.16092,2.588672 2.58809,2.588672 h 8.9414 c 1.42717,0 2.58867,-1.161167 2.58867,-2.588672 v -8.941406 c 0,-1.427171 -1.16116,-2.588086 -2.58867,-2.588086 z m 9.26777,1.173046 c 0.6063,0 1.0998,0.493508 1.0998,1.099805 0,0.606297 -0.4935,1.099219 -1.0998,1.099219 -0.60663,0 -1.0998,-0.492922 -1.0998,-1.099219 0,-0.606297 0.49317,-1.099805 1.0998,-1.099805 z M 75,10.392773 c 2.56289,0 4.64766,2.0851 4.64766,4.647657 0,2.562557 -2.0851,4.647656 -4.64766,4.647656 -2.56256,0 -4.64766,-2.084765 -4.64766,-4.647656 0,-2.562557 2.0851,-4.647657 4.64766,-4.647657 z m 0,1.964063 c -1.47931,0 -2.68359,1.203696 -2.68359,2.683008 0,1.479979 1.20428,2.684765 2.68359,2.684765 1.47998,0 2.68359,-1.204786 2.68359,-2.684765 0,-1.478977 -1.20395,-2.683008 -2.68359,-2.683008 z"
     style="fill:#0abe74;fill-opacity:1;stroke-width:0.33423203" /><g
     id="g4825"
     transform="matrix(0.26738921,0,0,0.26738921,90,2.68e-4)"><circle
       id="circle4823"
       style="fill:#0abe74;fill-opacity:1"
       cx="56.098"
       cy="56.097"
       r="56.098" /></g><path
     id="path4827"
     d="m 95.222379,15.671415 c -0.05321,2.58084 1.724393,5.043762 4.169667,5.847 2.303294,0.773824 5.135214,0.194926 6.667884,-1.777604 1.11902,-1.382135 1.37331,-3.224714 1.25218,-4.946165 -1.97253,-0.01765 -3.94506,-0.01177 -5.91464,-0.0088 -0.003,0.702699 0,1.402724 0.003,2.105422 1.18105,0.03262 2.36238,0.01765 3.54344,0.04145 -0.29814,1.021694 -0.97731,1.97253 -2.00809,2.341527 -1.99018,0.877037 -4.529578,-0.268726 -5.155804,-2.356501 -0.755909,-1.999269 0.481568,-4.411922 2.524694,-4.993494 1.26689,-0.445737 2.57201,0.05615 3.65601,0.714732 0.54922,-0.513922 1.06314,-1.06314 1.56797,-1.61824 -1.2316,-1.0305177 -2.81427,-1.6623584 -4.44134,-1.5235834 -3.192356,0.037969 -5.986039,2.9851334 -5.864911,6.1742844 z"
     style="fill:#ffffff;stroke-width:0.26738921"
     inkscape:connector-curvature="0" /><path
     id="path4829"
     d="m 111.15102,13.013566 c -0.006,0.587722 -0.012,1.178384 -0.015,1.765838 -0.59067,0.0059 -1.17812,0.0088 -1.76584,0.01177 0,0.587721 0,1.172234 0,1.759955 0.58772,0.0029 1.17838,0.0059 1.76584,0.01203 0.006,0.587721 0.006,1.175175 0.0118,1.765838 0.58478,0 1.1725,-0.0029 1.75996,0 0.003,-0.590663 0.006,-1.178117 0.012,-1.768779 0.58746,-0.0029 1.17812,-0.0059 1.76584,-0.0088 0,-0.587722 0,-1.172235 0,-1.759956 -0.58745,-0.0029 -1.17812,-0.0059 -1.76584,-0.01177 -0.003,-0.587722 -0.009,-1.178384 -0.012,-1.765839 -0.58746,-2.67e-4 -1.17224,-2.67e-4 -1.75675,-2.67e-4 z"
     style="fill:#ffffff;stroke-width:0.26738921"
     inkscape:connector-curvature="0" /><g
     id="g4841"
     transform="matrix(0.26738921,0,0,0.26738921,90,2.68e-4)" /><g
     id="g4843"
     transform="matrix(0.26738921,0,0,0.26738921,90,2.68e-4)" /><g
     id="g4845"
     transform="matrix(0.26738921,0,0,0.26738921,90,2.68e-4)" /><g
     id="g4847"
     transform="matrix(0.26738921,0,0,0.26738921,90,2.68e-4)" /><g
     id="g4849"
     transform="matrix(0.26738921,0,0,0.26738921,90,2.68e-4)" /><g
     id="g4851"
     transform="matrix(0.26738921,0,0,0.26738921,90,2.68e-4)" /><g
     id="g4853"
     transform="matrix(0.26738921,0,0,0.26738921,90,2.68e-4)" /><g
     id="g4855"
     transform="matrix(0.26738921,0,0,0.26738921,90,2.68e-4)" /><g
     id="g4857"
     transform="matrix(0.26738921,0,0,0.26738921,90,2.68e-4)" /><g
     id="g4859"
     transform="matrix(0.26738921,0,0,0.26738921,90,2.68e-4)" /><g
     id="g4861"
     transform="matrix(0.26738921,0,0,0.26738921,90,2.68e-4)" /><g
     id="g4863"
     transform="matrix(0.26738921,0,0,0.26738921,90,2.68e-4)" /><g
     id="g4865"
     transform="matrix(0.26738921,0,0,0.26738921,90,2.68e-4)" /><g
     id="g4867"
     transform="matrix(0.26738921,0,0,0.26738921,90,2.68e-4)" /><g
     id="g4869"
     transform="matrix(0.26738921,0,0,0.26738921,90,2.68e-4)" /><g
     id="g4875"
     transform="matrix(0.26738921,0,0,0.26738921,120,0)"><circle
       id="circle4873"
       style="fill:#0abe74;fill-opacity:1"
       cx="56.098"
       cy="56.098"
       r="56.098" /></g><path
     inkscape:connector-curvature="0"
     style="clip-rule:evenodd;fill:#ffffff;fill-rule:evenodd;stroke-width:0.26738921"
     d="m 134.4334,21.578844 h 1.17732 c 0,0 0.35562,-0.03904 0.53718,-0.234768 0.16712,-0.179685 0.16177,-0.51713 0.16177,-0.51713 0,0 -0.023,-1.579736 0.71019,-1.812364 0.72275,-0.229153 1.65086,1.526792 2.63458,2.20195 0.74388,0.51098 1.30914,0.398944 1.30914,0.398944 l 2.63031,-0.03663 c 0,0 1.37598,-0.08476 0.72355,-1.166619 -0.0535,-0.08851 -0.37996,-0.800296 -1.95568,-2.262915 -1.64926,-1.530803 -1.42839,-1.283201 0.55831,-3.931156 1.20993,-1.612624 1.69364,-2.597152 1.54257,-3.018824 -0.14413,-0.401619 -1.034,-0.295465 -1.034,-0.295465 l -2.9616,0.01845 c 0,0 -0.21953,-0.02995 -0.38237,0.06738 -0.15909,0.09546 -0.2615,0.317925 -0.2615,0.317925 0,0 -0.46874,1.247906 -1.09389,2.309174 -1.31877,2.239384 -1.84606,2.35757 -2.06157,2.218528 -0.50136,-0.324076 -0.37622,-1.301918 -0.37622,-1.996595 0,-2.170131 0.32916,-3.074976 -0.64093,-3.309209 -0.32194,-0.07781 -0.55885,-0.129149 -1.38214,-0.137438 -1.05672,-0.01096 -1.95114,0.0032 -2.45757,0.251346 -0.33691,0.164979 -0.59681,0.532639 -0.43852,0.553763 0.19573,0.0262 0.63906,0.119523 0.8741,0.439587 0.30348,0.412849 0.29279,1.340155 0.29279,1.340155 0,0 0.17433,2.554637 -0.40724,2.872028 -0.39921,0.217654 -0.94682,-0.226746 -2.12253,-2.25837 -0.60243,-1.040678 -1.05726,-2.190987 -1.05726,-2.190987 0,0 -0.0877,-0.214981 -0.24413,-0.329958 -0.18984,-0.13931 -0.45509,-0.183696 -0.45509,-0.183696 l -2.81427,0.01845 c 0,0 -0.42248,0.01177 -0.57756,0.195462 -0.13798,0.163375 -0.011,0.501355 -0.011,0.501355 0,0 2.20329,5.154729 4.69803,7.752415 2.28752,2.381636 4.8852,2.225213 4.8852,2.225213 z"
     id="path4877" /><g
     id="g4881"
     transform="matrix(0.26738921,0,0,0.26738921,120,0)" /><g
     id="g4883"
     transform="matrix(0.26738921,0,0,0.26738921,120,0)" /><g
     id="g4885"
     transform="matrix(0.26738921,0,0,0.26738921,120,0)" /><g
     id="g4887"
     transform="matrix(0.26738921,0,0,0.26738921,120,0)" /><g
     id="g4889"
     transform="matrix(0.26738921,0,0,0.26738921,120,0)" /><g
     id="g4891"
     transform="matrix(0.26738921,0,0,0.26738921,120,0)" /><g
     id="g4893"
     transform="matrix(0.26738921,0,0,0.26738921,120,0)" /><g
     id="g4895"
     transform="matrix(0.26738921,0,0,0.26738921,120,0)" /><g
     id="g4897"
     transform="matrix(0.26738921,0,0,0.26738921,120,0)" /><g
     id="g4899"
     transform="matrix(0.26738921,0,0,0.26738921,120,0)" /><g
     id="g4901"
     transform="matrix(0.26738921,0,0,0.26738921,120,0)" /><g
     id="g4903"
     transform="matrix(0.26738921,0,0,0.26738921,120,0)" /><g
     id="g4905"
     transform="matrix(0.26738921,0,0,0.26738921,120,0)" /><g
     id="g4907"
     transform="matrix(0.26738921,0,0,0.26738921,120,0)" /><g
     id="g4909"
     transform="matrix(0.26738921,0,0,0.26738921,120,0)" /><g
     style="stroke-width:5.11999989"
     transform="matrix(0.05859375,0,0,0.05859375,150,0)"
     id="g4947"><circle
       style="fill:#0abe74;fill-opacity:1;stroke-width:5.11999989"
       cx="256"
       cy="256"
       r="256"
       id="circle4913" /><path
       inkscape:connector-curvature="0"
       style="fill:#ffffff;stroke-width:5.11999989"
       d="M 341.649,152.333 H 170.351 c -33.608,0 -60.852,27.245 -60.852,60.852 v 85.632 c 0,33.608 27.245,60.852 60.852,60.852 h 171.298 c 33.608,0 60.852,-27.245 60.852,-60.852 v -85.632 c 0,-33.607 -27.245,-60.852 -60.852,-60.852 z m -41.155,107.834 -80.12,38.212 c -2.136,1.019 -4.603,-0.536 -4.603,-2.901 v -78.814 c 0,-2.4 2.532,-3.955 4.67,-2.87 l 80.12,40.601 c 2.386,1.207 2.343,4.624 -0.067,5.772 z"
       id="path4915" /><g
       style="stroke-width:5.11999989"
       id="g4917" /><g
       style="stroke-width:5.11999989"
       id="g4919" /><g
       style="stroke-width:5.11999989"
       id="g4921" /><g
       style="stroke-width:5.11999989"
       id="g4923" /><g
       style="stroke-width:5.11999989"
       id="g4925" /><g
       style="stroke-width:5.11999989"
       id="g4927" /><g
       style="stroke-width:5.11999989"
       id="g4929" /><g
       style="stroke-width:5.11999989"
       id="g4931" /><g
       style="stroke-width:5.11999989"
       id="g4933" /><g
       style="stroke-width:5.11999989"
       id="g4935" /><g
       style="stroke-width:5.11999989"
       id="g4937" /><g
       style="stroke-width:5.11999989"
       id="g4939" /><g
       style="stroke-width:5.11999989"
       id="g4941" /><g
       style="stroke-width:5.11999989"
       id="g4943" /><g
       style="stroke-width:5.11999989"
       id="g4945" /></g><path
     sodipodi:nodetypes="sssssssssssssssssssssssssssssssss"
     inkscape:connector-curvature="0"
     id="path4949"
     d="m 70.5293,6.017578 c -2.51009,0 -4.55215,2.042066 -4.55215,4.552149 v 8.941406 c 0,2.510416 2.04206,4.552148 4.55215,4.552148 h 8.9414 c 2.51042,0 4.55215,-2.041732 4.55215,-4.552148 v -8.941406 c 0,-2.510083 -2.04173,-4.552149 -4.55215,-4.552149 z m 0,1.964063 h 8.9414 c 1.42751,0 2.58867,1.160915 2.58867,2.588086 v 8.941406 c 0,1.427505 -1.1615,2.588672 -2.58867,2.588672 h -8.9414 c -1.42717,0 -2.58809,-1.161502 -2.58809,-2.588672 v -8.941406 c 0,-1.427171 1.16092,-2.588086 2.58809,-2.588086 z m 9.26777,1.173046 c -0.60663,0 -1.0998,0.493508 -1.0998,1.099805 0,0.606297 0.49317,1.099219 1.0998,1.099219 0.6063,0 1.0998,-0.492922 1.0998,-1.099219 0,-0.606297 -0.4935,-1.099805 -1.0998,-1.099805 z M 75,10.392773 c -2.56256,0 -4.64766,2.0851 -4.64766,4.647657 0,2.562891 2.0851,4.647656 4.64766,4.647656 2.56256,0 4.64766,-2.085099 4.64766,-4.647656 0,-2.562557 -2.08477,-4.647657 -4.64766,-4.647657 z m 0,1.964063 c 1.47964,0 2.68359,1.204031 2.68359,2.683008 0,1.479979 -1.20361,2.684765 -2.68359,2.684765 -1.47931,0 -2.68359,-1.204786 -2.68359,-2.684765 0,-1.479312 1.20428,-2.683008 2.68359,-2.683008 z"
     style="fill:#ffffff;fill-opacity:1;stroke:none;stroke-width:0.30000001;stroke-linecap:round;stroke-linejoin:round;stroke-miterlimit:4;stroke-dasharray:none;stroke-dashoffset:0;stroke-opacity:1;paint-order:normal" /></svg>